#N canvas 44 24 1265 663 10;
#X obj 213 514 tabwrite \$0-sequence;
#X msg 121 432 \$1 0;
#X obj 213 489 unpack;
#X msg 136 453 \$1 1;
#X msg 151 432 \$1 2;
#X msg 166 453 \$1 3;
#X msg 181 432 \$1 4;
#X msg 196 453 \$1 5;
#X msg 211 432 \$1 6;
#X msg 226 453 \$1 7;
#X msg 241 432 \$1 8;
#X msg 256 453 \$1 9;
#X msg 271 432 \$1 10;
#X msg 286 453 \$1 11;
#X msg 301 432 \$1 12;
#X msg 316 453 \$1 13;
#X msg 331 432 \$1 14;
#X msg 346 453 \$1 15;
#X floatatom 329 139 5 0 0 0 - #0-AUTOMATION_SCALED -;
#X obj 121 195 hradio 15 1 0 16 \$0-POS \$0-SET_POS empty -20 7 0 10
-262144 -1 -1 7;
#X floatatom 203 120 5 0 22 0 DEST #0-SET_DESTINATION #0-DESTINATION
;
#X obj 103 103 tgl 15 0 \$0-EN \$0-SET_EN EN 1 7 0 10 -262144 -1 -1
1 1;
#X obj 122 139 hradio 15 1 0 8 \$0-DIV \$0-SET_DIV DIV -20 8 0 10 -262144
-1 -1 1;
#X obj 121 159 hradio 15 1 0 16 \$0-MIN \$0-SET_MIN MIN -20 7 0 10
-262144 -1 -1 0;
#X obj 121 177 hradio 15 1 0 16 \$0-MAX \$0-SET_MAX MAX -20 7 0 10
-262144 -1 -1 15;
#X floatatom 287 139 5 0 0 0 POS #0-SET_POS -;
#X obj 122 121 hradio 15 1 0 3 \$0-DIRECTION \$0-SET_DIRECTION DIR
-20 8 0 10 -262144 -1 -1 2;
#X obj 790 113 \$0;
#X obj 790 80 loadbang;
#X symbolatom 239 120 20 0 0 0 - #0-ROUTE_SYMBOL -;
#X obj 239 103 bng 15 50 10 0 \$0-DESTINATION_INC \$0-SET_DESTINATION_INC
+ 4 8 0 10 -262144 -1 -1;
#X obj 257 103 bng 15 50 10 0 \$0-DESTINATION_DEC \$0-SET_DESTINATION_DEC
- 4 8 0 10 -262144 -1 -1;
#X msg 943 95 \; \$1-SET_VALUE_0 0 \; \$1-SET_VALUE_1 0 \; \$1-SET_VALUE_2
0 \; \$1-SET_VALUE_3 0 \; \$1-SET_VALUE_4 0 \; \$1-SET_VALUE_5 0 \;
\$1-SET_VALUE_6 0 \; \$1-SET_VALUE_7 0 \; \$1-SET_VALUE_8 0 \; \$1-SET_VALUE_9
0 \; \$1-SET_VALUE_10 0 \; \$1-SET_VALUE_11 0 \; \$1-SET_VALUE_12 0
\; \$1-SET_VALUE_13 0 \; \$1-SET_VALUE_14 0 \; \$1-SET_VALUE_15 0;
#N canvas 0 22 1519 906 ROUTING 0;
#X obj 797 185 s \$0-ROUTE_SYMBOL;
#X obj 797 -267 r \$0-DESTINATION;
#X obj 827 107 s \$0-ROUTE_SYMBOL;
#X obj 843 68 s \$0-ROUTE_SYMBOL;
#X obj 858 29 s \$0-ROUTE_SYMBOL;
#X obj 873 -10 s \$0-ROUTE_SYMBOL;
#X obj 889 -49 s \$0-ROUTE_SYMBOL;
#X obj 904 -88 s \$0-ROUTE_SYMBOL;
#X obj 919 -128 s \$0-ROUTE_SYMBOL;
#X obj 935 -167 s \$0-ROUTE_SYMBOL;
#X obj 950 -206 s \$0-ROUTE_SYMBOL;
#X obj 965 183 s \$0-ROUTE_SYMBOL;
#X obj 980 144 s \$0-ROUTE_SYMBOL;
#X obj 996 105 s \$0-ROUTE_SYMBOL;
#X obj 812 146 s \$0-ROUTE_SYMBOL;
#X obj 1042 -12 s \$0-ROUTE_SYMBOL;
#X obj 1011 66 s \$0-ROUTE_SYMBOL;
#X obj 1027 27 s \$0-ROUTE_SYMBOL;
#X obj 621 -200 f;
#X obj 621 -180 + 1;
#X obj 646 -180 - 1;
#X obj 646 -200 f;
#X obj 636 -260 r \$0-DESTINATION;
#X obj 621 -240 r \$0-DESTINATION_INC;
#X obj 646 -220 r \$0-DESTINATION_DEC;
#X obj 621 -108 s \$0-SET_DESTINATION;
#X obj 621 -157 max 0;
#X obj 18 -278 r \$0-ROUTING;
#X obj 18 415 s SET_NOTE_NUMBER;
#X obj 65 195 s SET_RAND_DIV;
#X obj 82 119 s SET_MASTER_CLOCK_TEMPO;
#X obj 98 41 s SET_TAP_1;
#X obj 257 69 s SET_MOD_1_DIV;
#X obj 18 -255 route 0 1 2 3 4 5 6 7 8 9 10 11 12 13 14 15 16;
#X obj 406 138 s SET_CLOCK_SEL_1;
#X obj 621 -132 min 16;
#X obj 797 -248 sel 0 1 2 3 4 5 6 7 8 9 10 11 12 13 14 15 16;
#X msg 827 88 symbol FREQUENCY_DIVIDER;
#X msg 812 127 symbol FREE_PITCH;
#X msg 797 166 symbol NOTE_NUMBER;
#X msg 858 10 symbol MASTER_CLOCK_TEMPO;
#X msg 873 -29 symbol TAP_1_POSITION;
#X msg 889 -68 symbol TAP_2_POSITION;
#X msg 904 -107 symbol TAP_3_POSITION;
#X msg 919 -147 symbol TAP_4_POSITION;
#X msg 935 -186 symbol MOD_1_DIVIDER;
#X msg 950 -225 symbol MOD_2_DIVIDER;
#X msg 965 164 symbol MOD_3_DIVIDER;
#X msg 980 125 symbol MOD_4_DIVIDER;
#X msg 996 86 symbol MOD_1_CLK_SRC_SEL;
#X msg 1011 47 symbol MOD_2_CLK_SRC_SEL;
#X msg 1027 8 symbol MOD_3_CLK_SRC_SEL;
#X msg 1042 -31 symbol MOD_4_CLK_SRC_SEL;
#X msg 843 49 symbol RANDOM_DIVIDER;
#X obj 18 375 * 60;
#X obj 18 395 i;
#X obj 9 435 s \$0-AUTOMATION_SCALED;
#X obj 27 355 s \$0-AUTOMATION_SCALED;
#X obj 50 253 i;
#X obj 43 293 s \$0-AUTOMATION_SCALED;
#X obj 50 233 * 8;
#X obj 66 176 i;
#X obj 59 214 s \$0-AUTOMATION_SCALED;
#X obj 66 157 * 15;
#X obj 82 81 * 235;
#X obj 82 100 + 15;
#X obj 75 138 s \$0-AUTOMATION_SCALED;
#X obj 98 21 i;
#X obj 91 61 s \$0-AUTOMATION_SCALED;
#X obj 114 -58 i;
#X obj 107 -18 s \$0-AUTOMATION_SCALED;
#X obj 114 -38 s SET_TAP_2;
#X obj 130 -137 i;
#X obj 123 -97 s \$0-AUTOMATION_SCALED;
#X obj 146 -216 i;
#X obj 139 -176 s \$0-AUTOMATION_SCALED;
#X obj 257 50 i;
#X obj 250 88 s \$0-AUTOMATION_SCALED;
#X obj 257 31 * 15;
#X obj 406 119 i;
#X obj 399 157 s \$0-AUTOMATION_SCALED;
#X obj 406 100 * 2;
#X obj 441 80 i;
#X obj 434 118 s \$0-AUTOMATION_SCALED;
#X obj 441 61 * 2;
#X obj 475 40 i;
#X obj 468 78 s \$0-AUTOMATION_SCALED;
#X obj 475 21 * 2;
#X obj 509 1 i;
#X obj 502 39 s \$0-AUTOMATION_SCALED;
#X obj 509 -18 * 2;
#X obj 441 99 s SET_CLOCK_SEL_2;
#X obj 475 59 s SET_CLOCK_SEL_3;
#X obj 509 20 s SET_CLOCK_SEL_4;
#X obj 293 10 i;
#X obj 286 48 s \$0-AUTOMATION_SCALED;
#X obj 293 -9 * 15;
#X obj 330 -29 i;
#X obj 323 9 s \$0-AUTOMATION_SCALED;
#X obj 330 -48 * 15;
#X obj 368 -69 i;
#X obj 361 -31 s \$0-AUTOMATION_SCALED;
#X obj 368 -88 * 15;
#X obj 368 -50 s SET_MOD_4_DIV;
#X obj 330 -10 s SET_MOD_3_DIV;
#X obj 293 29 s SET_MOD_2_DIV;
#X obj 34 335 s SET_PITCH_CONTROL_FINE;
#X obj 34 314 * 8192;
#X obj 50 273 s SET_PITCH_MULITPLIER;
#X obj 130 -117 s SET_TAP_3;
#X obj 146 -196 s SET_TAP_4;
#X obj 130 -157 * 31;
#X obj 114 -78 * 31;
#X obj 98 1 * 31;
#X obj 146 -236 * 31;
#X connect 1 0 36 0;
#X connect 18 0 19 0;
#X connect 19 0 26 0;
#X connect 20 0 26 0;
#X connect 21 0 20 0;
#X connect 22 0 18 1;
#X connect 22 0 21 1;
#X connect 23 0 18 0;
#X connect 24 0 21 0;
#X connect 26 0 35 0;
#X connect 27 0 33 0;
#X connect 33 0 54 0;
#X connect 33 1 107 0;
#X connect 33 2 60 0;
#X connect 33 3 63 0;
#X connect 33 4 64 0;
#X connect 33 5 113 0;
#X connect 33 6 112 0;
#X connect 33 7 111 0;
#X connect 33 8 114 0;
#X connect 33 9 78 0;
#X connect 33 10 96 0;
#X connect 33 11 99 0;
#X connect 33 12 102 0;
#X connect 33 13 81 0;
#X connect 33 14 84 0;
#X connect 33 15 87 0;
#X connect 33 16 90 0;
#X connect 35 0 25 0;
#X connect 36 0 39 0;
#X connect 36 1 38 0;
#X connect 36 2 37 0;
#X connect 36 3 53 0;
#X connect 36 4 40 0;
#X connect 36 5 41 0;
#X connect 36 6 42 0;
#X connect 36 7 43 0;
#X connect 36 8 44 0;
#X connect 36 9 45 0;
#X connect 36 10 46 0;
#X connect 36 11 47 0;
#X connect 36 12 48 0;
#X connect 36 13 49 0;
#X connect 36 14 50 0;
#X connect 36 15 51 0;
#X connect 36 16 52 0;
#X connect 37 0 2 0;
#X connect 38 0 14 0;
#X connect 39 0 0 0;
#X connect 40 0 4 0;
#X connect 41 0 5 0;
#X connect 42 0 6 0;
#X connect 43 0 7 0;
#X connect 44 0 8 0;
#X connect 45 0 9 0;
#X connect 46 0 10 0;
#X connect 47 0 11 0;
#X connect 48 0 12 0;
#X connect 49 0 13 0;
#X connect 50 0 16 0;
#X connect 51 0 17 0;
#X connect 52 0 15 0;
#X connect 53 0 3 0;
#X connect 54 0 55 0;
#X connect 55 0 28 0;
#X connect 55 0 56 0;
#X connect 58 0 59 0;
#X connect 58 0 108 0;
#X connect 60 0 58 0;
#X connect 61 0 62 0;
#X connect 61 0 29 0;
#X connect 63 0 61 0;
#X connect 64 0 65 0;
#X connect 65 0 30 0;
#X connect 65 0 66 0;
#X connect 67 0 68 0;
#X connect 67 0 31 0;
#X connect 69 0 70 0;
#X connect 69 0 71 0;
#X connect 72 0 73 0;
#X connect 72 0 109 0;
#X connect 74 0 75 0;
#X connect 74 0 110 0;
#X connect 76 0 77 0;
#X connect 76 0 32 0;
#X connect 78 0 76 0;
#X connect 79 0 80 0;
#X connect 79 0 34 0;
#X connect 81 0 79 0;
#X connect 82 0 83 0;
#X connect 82 0 91 0;
#X connect 84 0 82 0;
#X connect 85 0 86 0;
#X connect 85 0 92 0;
#X connect 87 0 85 0;
#X connect 88 0 89 0;
#X connect 88 0 93 0;
#X connect 90 0 88 0;
#X connect 94 0 95 0;
#X connect 94 0 105 0;
#X connect 96 0 94 0;
#X connect 97 0 98 0;
#X connect 97 0 104 0;
#X connect 99 0 97 0;
#X connect 100 0 101 0;
#X connect 100 0 103 0;
#X connect 102 0 100 0;
#X connect 107 0 57 0;
#X connect 107 0 106 0;
#X connect 111 0 72 0;
#X connect 112 0 69 0;
#X connect 113 0 67 0;
#X connect 114 0 74 0;
#X restore 213 553 pd ROUTING;
#X msg 1081 95 \; \$1-SET_VALUE_0 1 \; \$1-SET_VALUE_1 1 \; \$1-SET_VALUE_2
1 \; \$1-SET_VALUE_3 1 \; \$1-SET_VALUE_4 1 \; \$1-SET_VALUE_5 1 \;
\$1-SET_VALUE_6 1 \; \$1-SET_VALUE_7 1 \; \$1-SET_VALUE_8 1 \; \$1-SET_VALUE_9
1 \; \$1-SET_VALUE_10 1 \; \$1-SET_VALUE_11 1 \; \$1-SET_VALUE_12 1
\; \$1-SET_VALUE_13 1 \; \$1-SET_VALUE_14 1 \; \$1-SET_VALUE_15 1;
#N canvas 75 84 920 464 COUNTER_CONTROLS 0;
#X obj 170 231 i;
#X obj 693 149 tabread \$0-sequence;
#X obj 692 251 pack f f;
#X obj 692 232 i;
#X obj 707 213 r \$0-DESTINATION;
#X obj 692 194 t b;
#X obj 737 232 r \$0-AUTOMATION;
#X obj 693 168 s \$0-AUTOMATION;
#X obj 374 258 s \$0-INDEX;
#X obj 693 130 r \$0-INDEX;
#X obj 197 231 + 1;
#X msg 204 250 0;
#X obj 170 269 sel 1;
#X obj 170 250 >= 0;
#X obj 170 75 r MASTER_CLOCK;
#X obj 170 113 spigot;
#X obj 191 142 r \$0-DIV;
#X obj 170 288 s \$0-LOCAL_CLOCK;
#X obj 203 94 r \$0-EN;
#X obj 366 78 r \$0-LOCAL_CLOCK;
#X obj 382 239 s \$0-SET_POS;
#X msg 382 216 set \$1;
#X obj 373 99 r \$0-POS;
#X msg 373 119 goto \$1;
#X obj 529 150 r \$0-MIN;
#X obj 603 133 r \$0-MAX;
#X msg 603 152 max \$1;
#X obj 381 192 counter 0 31;
#X msg 514 188 min \$1;
#X obj 514 169 i;
#X obj 563 209 sel 1;
#X msg 563 229 0;
#X msg 590 228 1;
#X obj 563 188 i 1;
#X obj 563 169 t b;
#X obj 487 150 spigot;
#X obj 487 130 r \$0-LOCAL_CLOCK;
#X obj 603 172 s \$0-counter;
#X obj 514 249 s \$0-counter;
#X obj 381 141 r \$0-counter;
#X obj 398 165 r \$0-DIRECTION;
#X obj 691 275 s \$0-ROUTING;
#X obj 67 91 r \$0-DIV_MULT;
#X obj 191 203 i;
#X obj 234 199 i;
#X obj 67 114 sel 0 1;
#X obj 88 207 spigot;
#X obj 88 235 spigot;
#X obj 38 157 expr ! $f1;
#X obj 234 223 expr pow($f1 \, 2);
#X connect 0 0 10 0;
#X connect 0 0 13 0;
#X connect 1 0 7 0;
#X connect 2 0 41 0;
#X connect 3 0 2 0;
#X connect 4 0 3 1;
#X connect 5 0 3 0;
#X connect 6 0 5 0;
#X connect 6 0 2 1;
#X connect 9 0 1 0;
#X connect 10 0 0 1;
#X connect 11 0 0 1;
#X connect 12 0 11 0;
#X connect 12 0 17 0;
#X connect 13 0 12 0;
#X connect 14 0 15 0;
#X connect 15 0 0 0;
#X connect 16 0 43 1;
#X connect 16 0 44 1;
#X connect 16 0 46 0;
#X connect 16 0 47 0;
#X connect 18 0 15 1;
#X connect 19 0 27 0;
#X connect 21 0 20 0;
#X connect 22 0 23 0;
#X connect 23 0 27 0;
#X connect 24 0 29 1;
#X connect 24 0 34 0;
#X connect 25 0 26 0;
#X connect 26 0 37 0;
#X connect 27 0 8 0;
#X connect 27 0 21 0;
#X connect 28 0 38 0;
#X connect 29 0 28 0;
#X connect 30 0 31 0;
#X connect 30 1 32 0;
#X connect 31 0 33 1;
#X connect 32 0 33 1;
#X connect 33 0 30 0;
#X connect 33 0 35 1;
#X connect 34 0 33 0;
#X connect 35 0 33 0;
#X connect 35 0 29 0;
#X connect 36 0 35 0;
#X connect 39 0 27 0;
#X connect 40 0 27 1;
#X connect 42 0 45 0;
#X connect 42 0 48 0;
#X connect 42 0 47 1;
#X connect 43 0 13 1;
#X connect 44 0 49 0;
#X connect 45 0 43 0;
#X connect 45 1 44 0;
#X connect 46 0 43 0;
#X connect 47 0 44 0;
#X connect 48 0 46 1;
#X connect 49 0 13 1;
#X restore 213 573 pd COUNTER_CONTROLS;
#X obj 1081 72 \$0;
#X obj 1081 48 r \$0-ALL_PATTERN_1;
#X obj 770 58 r \$0-ALL_PATTERN_0;
#X obj 121 103 bng 15 250 50 0 \$0-ALL_PATTERN_0 empty 0 4 8 0 10 -262144
-1 -1;
#X obj 139 103 bng 15 250 50 0 \$0-ALL_PATTERN_1 empty 1 4 8 0 10 -262144
-1 -1;
#X obj 121 215 vsl 15 200 0 1 0 0 \$0-VALUE_0 \$0-SET_VALUE_0 0 4 8
0 10 -262144 -1 -1 4500 0;
#X obj 136 215 vsl 15 200 0 1 0 0 \$0-VALUE_1 \$0-SET_VALUE_1 1 4 8
0 10 -262144 -1 -1 2600 0;
#X obj 151 215 vsl 15 200 0 1 0 0 \$0-VALUE_2 \$0-SET_VALUE_2 2 4 8
0 10 -262144 -1 -1 1400 0;
#X obj 166 215 vsl 15 200 0 1 0 0 \$0-VALUE_3 \$0-SET_VALUE_3 3 4 8
0 10 -262144 -1 -1 0 0;
#X obj 181 215 vsl 15 200 0 1 0 0 \$0-VALUE_4 \$0-SET_VALUE_4 4 4 8
0 10 -262144 -1 -1 13300 0;
#X obj 196 215 vsl 15 200 0 1 0 0 \$0-VALUE_5 \$0-SET_VALUE_5 5 4 8
0 10 -262144 -1 -1 10900 0;
#X obj 211 215 vsl 15 200 0 1 0 0 \$0-VALUE_6 \$0-SET_VALUE_6 6 4 8
0 10 -262144 -1 -1 11300 0;
#X obj 226 215 vsl 15 200 0 1 0 0 \$0-VALUE_7 \$0-SET_VALUE_7 7 4 8
0 10 -262144 -1 -1 8400 0;
#X obj 241 215 vsl 15 200 0 1 0 0 \$0-VALUE_8 \$0-SET_VALUE_8 8 4 8
0 10 -262144 -1 -1 10000 0;
#X obj 256 215 vsl 15 200 0 1 0 0 \$0-VALUE_9 \$0-SET_VALUE_9 9 4 8
0 10 -262144 -1 -1 17600 0;
#X obj 271 215 vsl 15 200 0 1 0 0 \$0-VALUE_10 \$0-SET_VALUE_10 10
1 8 0 10 -262144 -1 -1 12100 0;
#X obj 286 215 vsl 15 200 0 1 0 0 \$0-VALUE_11 \$0-SET_VALUE_11 11
1 8 0 10 -262144 -1 -1 9000 0;
#X obj 301 215 vsl 15 200 0 1 0 0 \$0-VALUE_12 \$0-SET_VALUE_12 12
1 8 0 10 -262144 -1 -1 7300 0;
#X obj 316 215 vsl 15 200 0 1 0 0 \$0-VALUE_13 \$0-SET_VALUE_13 13
1 8 0 10 -262144 -1 -1 11900 0;
#X obj 331 215 vsl 15 200 0 1 0 0 \$0-VALUE_14 \$0-SET_VALUE_14 14
1 8 0 10 -262144 -1 -1 5400 0;
#X obj 346 215 vsl 15 200 0 1 0 0 \$0-VALUE_15 \$0-SET_VALUE_15 15
1 8 0 10 -262144 -1 -1 1600 0;
#X obj 213 534 table \$0-sequence 16;
#X obj 247 139 tgl 15 0 \$0-DIV_MULT \$0-SET_DIV_MULT /2 2 7 0 10 -262144
-1 -1 0 1;
#X msg 789 136 \; \$1-SET_MAX 31 \; \$1-SET_MIN 0 \; \$1-SET_DIV 3
\; \$1-SET_DESTINATION 0 \; \$1-SET_DIV_MULT 0;
#X connect 1 0 2 0;
#X connect 2 0 0 0;
#X connect 2 1 0 1;
#X connect 3 0 2 0;
#X connect 4 0 2 0;
#X connect 5 0 2 0;
#X connect 6 0 2 0;
#X connect 7 0 2 0;
#X connect 8 0 2 0;
#X connect 9 0 2 0;
#X connect 10 0 2 0;
#X connect 11 0 2 0;
#X connect 12 0 2 0;
#X connect 13 0 2 0;
#X connect 14 0 2 0;
#X connect 15 0 2 0;
#X connect 16 0 2 0;
#X connect 17 0 2 0;
#X connect 27 0 59 0;
#X connect 27 0 32 0;
#X connect 28 0 27 0;
#X connect 36 0 34 0;
#X connect 37 0 36 0;
#X connect 38 0 27 0;
#X connect 41 0 1 0;
#X connect 42 0 3 0;
#X connect 43 0 4 0;
#X connect 44 0 5 0;
#X connect 45 0 6 0;
#X connect 46 0 7 0;
#X connect 47 0 8 0;
#X connect 48 0 9 0;
#X connect 49 0 10 0;
#X connect 50 0 11 0;
#X connect 51 0 12 0;
#X connect 52 0 13 0;
#X connect 53 0 14 0;
#X connect 54 0 15 0;
#X connect 55 0 16 0;
#X connect 56 0 17 0;
#X coords 0 -1 1 1 264 321 2 100 100;
