#N canvas 0 23 1920 1151 10;
#N canvas 565 213 903 324 serial_port 0;
#X msg 194 235 close;
#X obj 194 213 loadbang;
#X obj 194 279 print Arduino_Says:;
#X obj 249 189 r to_serial;
#X obj 177 105 tgl 14 0 \$0-open_port \$0-set_open_port open_serial_port
17 6 0 10 -262144 -1 -1 1 1;
#X msg 141 273 set 1;
#X msg 99 273 set 0;
#X obj 143 165 sel 1 0;
#X text 288 256 creation arguments: <port#> <BAUD>;
#X text 316 278 if you gave the arduino something to say it appears
in the console;
#X text 308 235 send things to the serial port via "to_serial" send
symbol;
#X obj 249 213 spigot;
#X floatatom 137 103 5 0 3 0 PORT #0-SET_PORT #0-PORT;
#X msg 141 237 open \$1;
#X obj 141 214 i;
#X obj 98 300 s \$0-set_open_port;
#X obj 143 140 r \$0-open_port;
#X obj 156 190 r \$0-PORT;
#X obj 85 29 i \$0;
#X msg 85 49 \; \$1-SET_PORT 3 \;;
#X obj 85 8 loadbang;
#X obj 194 257 comport 0 115200;
#X connect 0 0 6 0;
#X connect 0 0 21 0;
#X connect 1 0 0 0;
#X connect 3 0 11 0;
#X connect 5 0 15 0;
#X connect 6 0 15 0;
#X connect 7 0 14 0;
#X connect 7 1 0 0;
#X connect 11 0 21 0;
#X connect 13 0 5 0;
#X connect 13 0 21 0;
#X connect 14 0 13 0;
#X connect 16 0 7 0;
#X connect 16 0 11 1;
#X connect 17 0 14 1;
#X connect 18 0 19 0;
#X connect 20 0 18 0;
#X connect 21 0 2 0;
#X coords 0 -1 1 1 200 22 2 100 100;
#X restore -17 -144 pd serial_port;
#N canvas 0 23 1366 725 master_clock 0;
#X obj 125 104 hsl 240 15 15 250 0 0 MASTER_CLOCK_TEMPO SET_MASTER_CLOCK_TEMPO
MASTER_CLOCK_BPM 2 8 0 10 -262144 -1 -1 10679 1;
#X floatatom 368 103 5 0 0 0 - - -;
#X floatatom 341 176 5 0 0 0 - - -;
#X msg 133 54 120;
#X msg 367 125 set \$1;
#X obj 104 104 tgl 15 0 empty empty empty 17 7 0 10 -262144 -1 -1 1
1;
#X obj 104 145 metro 1000;
#X obj 161 124 r MASTER_TEMPO;
#X obj 789 515 /;
#X obj 789 491 *;
#X obj 789 448 t b;
#X floatatom 739 580 8 0 0 0 - - -;
#X obj 414 104 hradio 15 1 0 8 DIV SET_DIV * -10 8 0 10 -262144 -1
-1 0;
#X obj 552 104 hradio 15 1 0 8 MULT SET_MULT / -10 8 0 10 -262144 -1
-1 0;
#X obj 789 544 s MASTER_TEMPO;
#X obj 394 173 s BASE_TEMPO;
#X obj 680 306 r BASE_TEMPO;
#X obj 817 383 r DIV;
#X obj 804 340 r MULT;
#X obj 804 360 + 1;
#X obj 817 402 + 1;
#X obj 104 168 s MASTER_CLOCK;
#X obj 341 149 expr (60/$f1)*250;
#X msg 181 46 \; SET_MULT 0 \; SET_DIV 0 \;;
#X obj 133 14 loadbang;
#X connect 0 0 1 0;
#X connect 1 0 4 0;
#X connect 1 0 22 0;
#X connect 3 0 0 0;
#X connect 4 0 0 0;
#X connect 5 0 6 0;
#X connect 6 0 21 0;
#X connect 7 0 6 1;
#X connect 8 0 11 0;
#X connect 8 0 14 0;
#X connect 9 0 8 0;
#X connect 10 0 9 0;
#X connect 16 0 9 0;
#X connect 17 0 20 0;
#X connect 18 0 19 0;
#X connect 19 0 9 1;
#X connect 19 0 10 0;
#X connect 20 0 8 1;
#X connect 20 0 10 0;
#X connect 22 0 2 0;
#X connect 22 0 15 0;
#X connect 24 0 3 0;
#X connect 24 0 23 0;
#X coords 0 -1 1 1 575 22 2 100 100;
#X restore -17 -117 pd master_clock;
#N canvas 166 23 1340 862 TAP_CONTROLS 0;
#X floatatom 168 121 5 0 0 0 S1.TAP1 S1T1 -;
#X floatatom 168 139 5 0 0 0 S1.TAP2 S1T2 -;
#X floatatom 170 189 5 0 0 0 S2.TAP1 S2T1 -;
#X floatatom 170 207 5 0 0 0 S2.TAP2 S2T2 -;
#X obj 205 122 tgl 15 0 S1T1E SET_S1T1E EN 4 8 0 10 -262144 -1 -1 1
1;
#X obj 224 100 cnv 15 480 150 empty empty empty 20 12 0 14 -1 -66577
0;
#X obj 464 100 cnv 15 240 150 empty empty empty 20 12 0 14 -191407
-66577 0;
#X obj 224 123 hradio 15 1 0 32 S1T1 SET_S1T1 empty 4 7 0 8 -262144
-1 -1 2;
#X obj 224 141 hradio 15 1 0 32 S1T2 SET_S1T2 empty 4 7 0 8 -262144
-1 -1 0;
#X obj 224 208 hradio 15 1 0 32 S2T2 SET_S2T2 empty 4 7 0 8 -262144
-1 -1 0;
#X obj 224 190 hradio 15 1 0 32 S2T1 SET_S2T1 empty 4 7 0 8 -262144
-1 -1 3;
#X obj 224 161 hradio 15 1 0 32 D1N SET_D1N /N -17 7 0 12 -262144 -1
-1 1;
#X obj 224 228 hradio 15 1 0 32 D2N SET_D2N /N -17 7 0 12 -262144 -1
-1 1;
#X obj 205 140 tgl 15 0 S1T2E SET_S1T2E EN 4 8 0 10 -262144 -1 -1 0
1;
#X obj 206 190 tgl 15 0 S2T1E SET_S2T1E EN 4 8 0 10 -262144 -1 -1 1
1;
#X obj 206 208 tgl 15 0 S2T2E SET_S2T2E EN 4 8 0 10 -262144 -1 -1 0
1;
#X obj 7 837 print what goes out;
#X obj 8 799 r to_serial;
#X obj 103 103 tgl 15 0 MUTE SET_MUTE MUTE 17 7 0 10 -262144 -1 -1
1 1;
#X obj 103 162 tgl 15 0 S1M SET_S1M S1.MOD 20 8 0 10 -262144 -1 -1
1 1;
#X obj 103 228 tgl 15 0 S2M SET_S2M S2.MOD 20 8 0 10 -262144 -1 -1
1 1;
#N canvas 331 706 450 300 mute 0;
#X obj 29 157 s to_serial;
#X obj 29 137 pack f f;
#X obj 29 104 expr 15 \; $i1 \;;
#X obj 29 83 r MUTE;
#X obj 29 42 sel 32;
#X obj 29 62 s SET_MUTE;
#X obj 29 20 key;
#X connect 1 0 0 0;
#X connect 2 0 1 0;
#X connect 2 1 1 1;
#X connect 3 0 2 0;
#X connect 4 0 5 0;
#X connect 6 0 4 0;
#X restore 6 773 pd mute controls;
#N canvas 536 502 1197 264 S1 0;
#X obj 22 191 pack f f;
#X obj 459 201 pack f f;
#X obj 22 158 expr 0 \; $i1 \;;
#X obj 459 168 expr 2 \; $i1 \;;
#X obj 241 193 pack f f;
#X obj 689 184 pack f f;
#X obj 241 160 expr 1 \; $i1 \;;
#X obj 689 151 expr 3 \; $i1 \;;
#X obj 930 186 pack f f;
#X obj 930 153 expr 4 \; $i1 \;;
#X obj 22 136 spigot;
#X obj 208 55 t b;
#X obj 208 78 f;
#X obj 55 102 expr if($f1 != $f2 \, 1 \, 0) \; $f1 \;;
#X obj 22 38 r S1T1;
#X obj 22 212 s to_serial;
#X obj 241 214 s to_serial;
#X obj 459 222 s to_serial;
#X obj 689 204 s to_serial;
#X obj 930 206 s to_serial;
#X obj 241 138 spigot;
#X obj 427 57 t b;
#X obj 427 80 f;
#X obj 274 104 expr if($f1 != $f2 \, 1 \, 0) \; $f1 \;;
#X obj 241 40 r S1T1E;
#X obj 689 128 spigot;
#X obj 875 47 t b;
#X obj 875 70 f;
#X obj 722 94 expr if($f1 != $f2 \, 1 \, 0) \; $f1 \;;
#X obj 689 30 r S1T2E;
#X obj 929 131 spigot;
#X obj 1115 50 t b;
#X obj 1115 73 f;
#X obj 962 97 expr if($f1 != $f2 \, 1 \, 0) \; $f1 \;;
#X obj 929 33 r S1M;
#X obj 459 147 spigot;
#X obj 645 66 t b;
#X obj 645 89 f;
#X obj 492 113 expr if($f1 != $f2 \, 1 \, 0) \; $f1 \;;
#X obj 459 49 r S1T2;
#X connect 0 0 15 0;
#X connect 1 0 17 0;
#X connect 2 0 0 0;
#X connect 2 1 0 1;
#X connect 3 0 1 0;
#X connect 3 1 1 1;
#X connect 4 0 16 0;
#X connect 5 0 18 0;
#X connect 6 0 4 0;
#X connect 6 1 4 1;
#X connect 7 0 5 0;
#X connect 7 1 5 1;
#X connect 8 0 19 0;
#X connect 9 0 8 0;
#X connect 9 1 8 1;
#X connect 10 0 2 0;
#X connect 11 0 12 0;
#X connect 12 0 13 1;
#X connect 13 0 10 1;
#X connect 13 1 12 1;
#X connect 14 0 11 0;
#X connect 14 0 13 0;
#X connect 14 0 10 0;
#X connect 20 0 6 0;
#X connect 21 0 22 0;
#X connect 22 0 23 1;
#X connect 23 0 20 1;
#X connect 23 1 22 1;
#X connect 24 0 21 0;
#X connect 24 0 23 0;
#X connect 24 0 20 0;
#X connect 25 0 7 0;
#X connect 26 0 27 0;
#X connect 27 0 28 1;
#X connect 28 0 25 1;
#X connect 28 1 27 1;
#X connect 29 0 26 0;
#X connect 29 0 28 0;
#X connect 29 0 25 0;
#X connect 30 0 9 0;
#X connect 31 0 32 0;
#X connect 32 0 33 1;
#X connect 33 0 30 1;
#X connect 33 1 32 1;
#X connect 34 0 31 0;
#X connect 34 0 33 0;
#X connect 34 0 30 0;
#X connect 35 0 3 0;
#X connect 36 0 37 0;
#X connect 37 0 38 1;
#X connect 38 0 35 1;
#X connect 38 1 37 1;
#X connect 39 0 36 0;
#X connect 39 0 38 0;
#X connect 39 0 35 0;
#X restore 6 716 pd S1 controls;
#N canvas 458 440 1226 277 S2 0;
#X obj 22 191 pack f f;
#X obj 474 203 pack f f;
#X obj 241 193 pack f f;
#X obj 704 186 pack f f;
#X obj 952 194 pack f f;
#X obj 22 136 spigot;
#X obj 208 55 t b;
#X obj 208 78 f;
#X obj 55 102 expr if($f1 != $f2 \, 1 \, 0) \; $f1 \;;
#X obj 22 212 s to_serial;
#X obj 241 214 s to_serial;
#X obj 474 224 s to_serial;
#X obj 704 206 s to_serial;
#X obj 952 214 s to_serial;
#X obj 241 138 spigot;
#X obj 427 57 t b;
#X obj 427 80 f;
#X obj 274 104 expr if($f1 != $f2 \, 1 \, 0) \; $f1 \;;
#X obj 704 130 spigot;
#X obj 890 49 t b;
#X obj 890 72 f;
#X obj 737 96 expr if($f1 != $f2 \, 1 \, 0) \; $f1 \;;
#X obj 951 139 spigot;
#X obj 1137 58 t b;
#X obj 1137 81 f;
#X obj 984 105 expr if($f1 != $f2 \, 1 \, 0) \; $f1 \;;
#X obj 474 149 spigot;
#X obj 660 68 t b;
#X obj 660 91 f;
#X obj 507 115 expr if($f1 != $f2 \, 1 \, 0) \; $f1 \;;
#X obj 22 38 r S2T1;
#X obj 241 40 r S2T1E;
#X obj 474 51 r S2T2;
#X obj 704 32 r S2T2E;
#X obj 951 41 r S2M;
#X obj 22 158 expr 5 \; $i1 \;;
#X obj 241 160 expr 6 \; $i1 \;;
#X obj 474 170 expr 7 \; $i1 \;;
#X obj 704 153 expr 8 \; $i1 \;;
#X obj 952 161 expr 9 \; $i1 \;;
#X connect 0 0 9 0;
#X connect 1 0 11 0;
#X connect 2 0 10 0;
#X connect 3 0 12 0;
#X connect 4 0 13 0;
#X connect 5 0 35 0;
#X connect 6 0 7 0;
#X connect 7 0 8 1;
#X connect 8 0 5 1;
#X connect 8 1 7 1;
#X connect 14 0 36 0;
#X connect 15 0 16 0;
#X connect 16 0 17 1;
#X connect 17 0 14 1;
#X connect 17 1 16 1;
#X connect 18 0 38 0;
#X connect 19 0 20 0;
#X connect 20 0 21 1;
#X connect 21 0 18 1;
#X connect 21 1 20 1;
#X connect 22 0 39 0;
#X connect 23 0 24 0;
#X connect 24 0 25 1;
#X connect 25 0 22 1;
#X connect 25 1 24 1;
#X connect 26 0 37 0;
#X connect 27 0 28 0;
#X connect 28 0 29 1;
#X connect 29 0 26 1;
#X connect 29 1 28 1;
#X connect 30 0 6 0;
#X connect 30 0 8 0;
#X connect 30 0 5 0;
#X connect 31 0 15 0;
#X connect 31 0 17 0;
#X connect 31 0 14 0;
#X connect 32 0 27 0;
#X connect 32 0 29 0;
#X connect 32 0 26 0;
#X connect 33 0 19 0;
#X connect 33 0 21 0;
#X connect 33 0 18 0;
#X connect 34 0 23 0;
#X connect 34 0 25 0;
#X connect 34 0 22 0;
#X connect 35 0 0 0;
#X connect 35 1 0 1;
#X connect 36 0 2 0;
#X connect 36 1 2 1;
#X connect 37 0 1 0;
#X connect 37 1 1 1;
#X connect 38 0 3 0;
#X connect 38 1 3 1;
#X connect 39 0 4 0;
#X connect 39 1 4 1;
#X restore 6 735 pd S2 controls;
#N canvas 634 468 542 236 DivideByN 0;
#X obj 26 201 s to_serial;
#X obj 26 181 pack f f;
#X obj 255 200 s to_serial;
#X obj 255 180 pack f f;
#X obj 26 148 expr 10 \; $i1 \;;
#X obj 255 147 expr 11 \; $i1 \;;
#X obj 255 24 r D2N;
#X obj 255 122 spigot;
#X obj 441 41 t b;
#X obj 441 64 f;
#X obj 288 88 expr if($f1 != $f2 \, 1 \, 0) \; $f1 \;;
#X obj 26 128 spigot;
#X obj 212 47 t b;
#X obj 212 70 f;
#X obj 59 94 expr if($f1 != $f2 \, 1 \, 0) \; $f1 \;;
#X obj 26 30 r D1N;
#X connect 1 0 0 0;
#X connect 3 0 2 0;
#X connect 4 0 1 0;
#X connect 4 1 1 1;
#X connect 5 0 3 0;
#X connect 5 1 3 1;
#X connect 6 0 8 0;
#X connect 6 0 10 0;
#X connect 6 0 7 0;
#X connect 7 0 5 0;
#X connect 8 0 9 0;
#X connect 9 0 10 1;
#X connect 10 0 7 1;
#X connect 10 1 9 1;
#X connect 11 0 4 0;
#X connect 12 0 13 0;
#X connect 13 0 14 1;
#X connect 14 0 11 1;
#X connect 14 1 13 1;
#X connect 15 0 12 0;
#X connect 15 0 14 0;
#X connect 15 0 11 0;
#X restore 6 754 pd DivideByN Controls;
#X connect 17 0 16 0;
#X coords 0 -1 1 1 605 150 2 100 100;
#X restore -17 496 pd TAP_CONTROLS;
#N canvas 462 288 1270 704 matrix 0;
#X obj 121 57 hradio 15 1 0 16 S1T1A_C empty empty 0 -8 0 10 -262144
-1 -1 0;
#X obj 57 57 hradio 15 1 0 4 S1T1A_SRC empty A -10 8 0 10 -262144 -1
-1 0;
#N canvas 249 23 450 300 counter 0;
#X obj 164 150 i;
#X msg 84 102 0;
#X obj 164 175 + 1;
#X obj 84 62 inlet;
#X obj 184 82 inlet;
#X obj 84 82 route reset set;
#X obj 119 175 outlet;
#X connect 0 0 2 0;
#X connect 0 0 6 0;
#X connect 1 0 0 1;
#X connect 2 0 0 1;
#X connect 3 0 5 0;
#X connect 4 0 0 1;
#X connect 5 0 1 0;
#X connect 5 1 0 1;
#X connect 5 2 0 0;
#X restore -68 613 pd counter;
#X obj -68 634 s counter;
#X obj 121 75 hradio 15 1 0 16 S1T1B_C empty empty 0 -8 0 10 -262144
-1 -1 0;
#X obj 57 75 hradio 15 1 0 4 S1T1B_SRC empty B -10 8 0 10 -262144 -1
-1 0;
#X obj 121 93 hradio 15 1 0 16 S1T1C_C empty empty 0 -8 0 10 -262144
-1 -1 0;
#X obj 57 93 hradio 15 1 0 4 S1T1C_SRC empty C -10 8 0 10 -262144 -1
-1 0;
#X obj 121 111 hradio 15 1 0 16 S1T1D_C empty empty 0 -8 0 10 -262144
-1 -1 0;
#X obj 57 111 hradio 15 1 0 4 S1T1D_SRC empty D -10 8 0 10 -262144
-1 -1 0;
#X obj 121 129 hradio 15 1 0 16 S1T1E_C empty empty 0 -8 0 10 -262144
-1 -1 0;
#X obj 57 129 hradio 15 1 0 4 S1T1E_SRC empty E -10 8 0 10 -262144
-1 -1 0;
#X obj 121 175 hradio 15 1 0 16 S1T2A_C empty empty 0 -8 0 10 -262144
-1 -1 0;
#X obj 57 175 hradio 15 1 0 4 S1T2A_SRC empty A -10 8 0 10 -262144
-1 -1 0;
#X obj 121 193 hradio 15 1 0 16 S1T2B_C empty empty 0 -8 0 10 -262144
-1 -1 0;
#X obj 57 193 hradio 15 1 0 4 S1T2B_SRC empty B -10 8 0 10 -262144
-1 -1 0;
#X obj 121 211 hradio 15 1 0 16 S1T2C_C empty empty 0 -8 0 10 -262144
-1 -1 0;
#X obj 57 211 hradio 15 1 0 4 S1T2C_SRC empty C -10 8 0 10 -262144
-1 -1 0;
#X obj 121 229 hradio 15 1 0 16 S1T2D_C empty empty 0 -8 0 10 -262144
-1 -1 0;
#X obj 57 229 hradio 15 1 0 4 S1T2D_SRC empty D -10 8 0 10 -262144
-1 -1 0;
#X obj 121 247 hradio 15 1 0 16 S1T2E_C empty empty 0 -8 0 10 -262144
-1 -1 0;
#X obj 57 247 hradio 15 1 0 4 S1T2E_SRC empty E -10 8 0 10 -262144
-1 -1 0;
#X obj 121 34 hradio 15 1 0 16 S1T1EN_C empty empty 0 -8 0 10 -262144
-1 -1 0;
#X obj 57 34 hradio 15 1 0 4 S1T1EN_SRC empty S1T1E -30 8 0 10 -262144
-1 -1 0;
#X obj 121 152 hradio 15 1 0 16 S1T2EN_C empty empty 0 -8 0 10 -262144
-1 -1 0;
#X obj 57 152 hradio 15 1 0 4 S1T2EN_SRC empty S1T2E -30 8 0 10 -262144
-1 -1 0;
#X obj 121 270 hradio 15 1 0 16 S1M_C empty empty 0 -8 0 10 -262144
-1 -1 0;
#X obj 57 270 hradio 15 1 0 4 S1M_SRC empty S1MOD -30 8 0 10 -262144
-1 -1 0;
#N canvas 180 23 450 300 S1T1 0;
#X obj 23 108 s SET_S1T1;
#X obj 23 73 expr ($i1 & 1) | ($i2 & 1) << 1 | ($i3 & 1) << 2 | ($i4
& 1) << 3 | ($i5 & 1) << 4 \;;
#X obj 54 50 t b;
#N canvas 511 272 1045 99 matrix 0;
#X obj 160 20 r S1T1A_C;
#X obj 19 20 r S1T1A_SRC;
#X obj 221 20 r S1T1B_SRC;
#X obj 362 20 r S1T1B_C;
#X obj 422 20 r S1T1C_SRC;
#X obj 563 20 r S1T1C_C;
#X obj 623 20 r S1T1D_SRC;
#X obj 764 20 r S1T1D_C;
#X obj 824 20 r S1T1E_SRC;
#X obj 965 20 r S1T1E_C;
#X obj 19 58 outlet;
#X obj 221 58 outlet;
#X obj 422 58 outlet;
#X obj 623 59 outlet;
#X obj 824 58 outlet;
#N canvas 714 511 450 300 source 0;
#X obj 184 114 expr $i1 >> $i2 & 1 \;;
#X obj 132 6 r counter;
#X obj 58 161 pipe;
#X obj 70 7 sel 2 3;
#X obj 131 184 spigot;
#X obj 58 182 spigot;
#X msg 91 162 0;
#X msg 119 162 1;
#X msg 164 161 0;
#X msg 192 161 1;
#X obj 205 18 r LFSR;
#X obj 205 73 spigot;
#X obj 132 72 spigot;
#X msg 165 52 0;
#X msg 193 52 1;
#X msg 238 51 0;
#X msg 266 51 1;
#X obj 68 208 outlet;
#X obj 309 13 inlet;
#X text 318 33 address of counter/register;
#X obj 58 -18 inlet;
#X text 60 -36 selector input;
#X connect 0 0 4 0;
#X connect 1 0 12 0;
#X connect 2 0 5 0;
#X connect 3 0 6 0;
#X connect 3 0 9 0;
#X connect 3 0 14 0;
#X connect 3 0 15 0;
#X connect 3 1 6 0;
#X connect 3 1 9 0;
#X connect 3 1 13 0;
#X connect 3 1 16 0;
#X connect 3 2 7 0;
#X connect 3 2 8 0;
#X connect 3 2 13 0;
#X connect 3 2 15 0;
#X connect 4 0 17 0;
#X connect 5 0 17 0;
#X connect 6 0 5 1;
#X connect 7 0 5 1;
#X connect 8 0 4 1;
#X connect 9 0 4 1;
#X connect 10 0 11 0;
#X connect 11 0 0 0;
#X connect 12 0 0 0;
#X connect 13 0 12 1;
#X connect 14 0 12 1;
#X connect 15 0 11 1;
#X connect 16 0 11 1;
#X connect 18 0 0 1;
#X connect 20 0 3 0;
#X connect 20 0 2 0;
#X restore 824 39 pd source selection guts;
#N canvas 714 511 450 300 source 0;
#X obj 184 114 expr $i1 >> $i2 & 1 \;;
#X obj 132 6 r counter;
#X obj 58 161 pipe;
#X obj 70 7 sel 2 3;
#X obj 131 184 spigot;
#X obj 58 182 spigot;
#X msg 91 162 0;
#X msg 119 162 1;
#X msg 164 161 0;
#X msg 192 161 1;
#X obj 205 18 r LFSR;
#X obj 205 73 spigot;
#X obj 132 72 spigot;
#X msg 165 52 0;
#X msg 193 52 1;
#X msg 238 51 0;
#X msg 266 51 1;
#X obj 68 208 outlet;
#X obj 309 13 inlet;
#X text 318 33 address of counter/register;
#X obj 58 -18 inlet;
#X text 60 -36 selector input;
#X connect 0 0 4 0;
#X connect 1 0 12 0;
#X connect 2 0 5 0;
#X connect 3 0 6 0;
#X connect 3 0 9 0;
#X connect 3 0 14 0;
#X connect 3 0 15 0;
#X connect 3 1 6 0;
#X connect 3 1 9 0;
#X connect 3 1 13 0;
#X connect 3 1 16 0;
#X connect 3 2 7 0;
#X connect 3 2 8 0;
#X connect 3 2 13 0;
#X connect 3 2 15 0;
#X connect 4 0 17 0;
#X connect 5 0 17 0;
#X connect 6 0 5 1;
#X connect 7 0 5 1;
#X connect 8 0 4 1;
#X connect 9 0 4 1;
#X connect 10 0 11 0;
#X connect 11 0 0 0;
#X connect 12 0 0 0;
#X connect 13 0 12 1;
#X connect 14 0 12 1;
#X connect 15 0 11 1;
#X connect 16 0 11 1;
#X connect 18 0 0 1;
#X connect 20 0 3 0;
#X connect 20 0 2 0;
#X restore 19 39 pd source selection guts;
#N canvas 714 511 450 300 source 0;
#X obj 184 114 expr $i1 >> $i2 & 1 \;;
#X obj 132 6 r counter;
#X obj 58 161 pipe;
#X obj 70 7 sel 2 3;
#X obj 131 184 spigot;
#X obj 58 182 spigot;
#X msg 91 162 0;
#X msg 119 162 1;
#X msg 164 161 0;
#X msg 192 161 1;
#X obj 205 18 r LFSR;
#X obj 205 73 spigot;
#X obj 132 72 spigot;
#X msg 165 52 0;
#X msg 193 52 1;
#X msg 238 51 0;
#X msg 266 51 1;
#X obj 68 208 outlet;
#X obj 309 13 inlet;
#X text 318 33 address of counter/register;
#X obj 58 -18 inlet;
#X text 60 -36 selector input;
#X connect 0 0 4 0;
#X connect 1 0 12 0;
#X connect 2 0 5 0;
#X connect 3 0 6 0;
#X connect 3 0 9 0;
#X connect 3 0 14 0;
#X connect 3 0 15 0;
#X connect 3 1 6 0;
#X connect 3 1 9 0;
#X connect 3 1 13 0;
#X connect 3 1 16 0;
#X connect 3 2 7 0;
#X connect 3 2 8 0;
#X connect 3 2 13 0;
#X connect 3 2 15 0;
#X connect 4 0 17 0;
#X connect 5 0 17 0;
#X connect 6 0 5 1;
#X connect 7 0 5 1;
#X connect 8 0 4 1;
#X connect 9 0 4 1;
#X connect 10 0 11 0;
#X connect 11 0 0 0;
#X connect 12 0 0 0;
#X connect 13 0 12 1;
#X connect 14 0 12 1;
#X connect 15 0 11 1;
#X connect 16 0 11 1;
#X connect 18 0 0 1;
#X connect 20 0 3 0;
#X connect 20 0 2 0;
#X restore 221 39 pd source selection guts;
#N canvas 714 511 450 300 source 0;
#X obj 184 114 expr $i1 >> $i2 & 1 \;;
#X obj 132 6 r counter;
#X obj 58 161 pipe;
#X obj 70 7 sel 2 3;
#X obj 131 184 spigot;
#X obj 58 182 spigot;
#X msg 91 162 0;
#X msg 119 162 1;
#X msg 164 161 0;
#X msg 192 161 1;
#X obj 205 18 r LFSR;
#X obj 205 73 spigot;
#X obj 132 72 spigot;
#X msg 165 52 0;
#X msg 193 52 1;
#X msg 238 51 0;
#X msg 266 51 1;
#X obj 68 208 outlet;
#X obj 309 13 inlet;
#X text 318 33 address of counter/register;
#X obj 58 -18 inlet;
#X text 60 -36 selector input;
#X connect 0 0 4 0;
#X connect 1 0 12 0;
#X connect 2 0 5 0;
#X connect 3 0 6 0;
#X connect 3 0 9 0;
#X connect 3 0 14 0;
#X connect 3 0 15 0;
#X connect 3 1 6 0;
#X connect 3 1 9 0;
#X connect 3 1 13 0;
#X connect 3 1 16 0;
#X connect 3 2 7 0;
#X connect 3 2 8 0;
#X connect 3 2 13 0;
#X connect 3 2 15 0;
#X connect 4 0 17 0;
#X connect 5 0 17 0;
#X connect 6 0 5 1;
#X connect 7 0 5 1;
#X connect 8 0 4 1;
#X connect 9 0 4 1;
#X connect 10 0 11 0;
#X connect 11 0 0 0;
#X connect 12 0 0 0;
#X connect 13 0 12 1;
#X connect 14 0 12 1;
#X connect 15 0 11 1;
#X connect 16 0 11 1;
#X connect 18 0 0 1;
#X connect 20 0 3 0;
#X connect 20 0 2 0;
#X restore 623 39 pd source selection guts;
#N canvas 714 511 450 300 source 0;
#X obj 184 114 expr $i1 >> $i2 & 1 \;;
#X obj 132 6 r counter;
#X obj 58 161 pipe;
#X obj 70 7 sel 2 3;
#X obj 131 184 spigot;
#X obj 58 182 spigot;
#X msg 91 162 0;
#X msg 119 162 1;
#X msg 164 161 0;
#X msg 192 161 1;
#X obj 205 18 r LFSR;
#X obj 205 73 spigot;
#X obj 132 72 spigot;
#X msg 165 52 0;
#X msg 193 52 1;
#X msg 238 51 0;
#X msg 266 51 1;
#X obj 68 208 outlet;
#X obj 309 13 inlet;
#X text 318 33 address of counter/register;
#X obj 58 -18 inlet;
#X text 60 -36 selector input;
#X connect 0 0 4 0;
#X connect 1 0 12 0;
#X connect 2 0 5 0;
#X connect 3 0 6 0;
#X connect 3 0 9 0;
#X connect 3 0 14 0;
#X connect 3 0 15 0;
#X connect 3 1 6 0;
#X connect 3 1 9 0;
#X connect 3 1 13 0;
#X connect 3 1 16 0;
#X connect 3 2 7 0;
#X connect 3 2 8 0;
#X connect 3 2 13 0;
#X connect 3 2 15 0;
#X connect 4 0 17 0;
#X connect 5 0 17 0;
#X connect 6 0 5 1;
#X connect 7 0 5 1;
#X connect 8 0 4 1;
#X connect 9 0 4 1;
#X connect 10 0 11 0;
#X connect 11 0 0 0;
#X connect 12 0 0 0;
#X connect 13 0 12 1;
#X connect 14 0 12 1;
#X connect 15 0 11 1;
#X connect 16 0 11 1;
#X connect 18 0 0 1;
#X connect 20 0 3 0;
#X connect 20 0 2 0;
#X restore 422 39 pd source selection guts;
#X connect 0 0 16 1;
#X connect 1 0 16 0;
#X connect 2 0 17 0;
#X connect 3 0 17 1;
#X connect 4 0 19 0;
#X connect 5 0 19 1;
#X connect 6 0 18 0;
#X connect 7 0 18 1;
#X connect 8 0 15 0;
#X connect 9 0 15 1;
#X connect 15 0 14 0;
#X connect 16 0 10 0;
#X connect 17 0 11 0;
#X connect 18 0 13 0;
#X connect 19 0 12 0;
#X restore 23 22 pd matrix guts 1;
#X connect 1 0 0 0;
#X connect 2 0 1 0;
#X connect 3 0 1 0;
#X connect 3 1 1 1;
#X connect 3 1 2 0;
#X connect 3 2 1 2;
#X connect 3 2 2 0;
#X connect 3 3 1 3;
#X connect 3 3 2 0;
#X connect 3 4 1 4;
#X connect 3 4 2 0;
#X restore -130 94 pd S1T1;
#N canvas 1073 23 450 300 S1T2 0;
#X obj 13 73 expr ($i1 & 1) | ($i2 & 1) << 1 | ($i3 & 1) << 2 | ($i4
& 1) << 3 | ($i5 & 1) << 4 \;;
#X obj 44 50 t b;
#N canvas 511 272 1320 253 matrix 0;
#X obj 19 175 outlet;
#X obj 276 185 outlet;
#X obj 531 184 outlet;
#X obj 785 190 outlet;
#X obj 1041 207 outlet;
#X obj 19 20 r S1T2A_SRC;
#X obj 209 20 r S1T2A_C;
#X obj 276 20 r S1T2B_SRC;
#X obj 466 20 r S1T2B_C;
#X obj 531 20 r S1T2C_SRC;
#X obj 722 20 r S1T2C_C;
#X obj 785 22 r S1T2D_SRC;
#X obj 975 22 r S1T2D_C;
#X obj 1041 25 r S1T2E_SRC;
#X obj 1234 25 r S1T2E_C;
#N canvas 714 511 450 300 source 0;
#X obj 184 114 expr $i1 >> $i2 & 1 \;;
#X obj 132 6 r counter;
#X obj 58 161 pipe;
#X obj 70 7 sel 2 3;
#X obj 131 184 spigot;
#X obj 58 182 spigot;
#X msg 91 162 0;
#X msg 119 162 1;
#X msg 164 161 0;
#X msg 192 161 1;
#X obj 205 18 r LFSR;
#X obj 205 73 spigot;
#X obj 132 72 spigot;
#X msg 165 52 0;
#X msg 193 52 1;
#X msg 238 51 0;
#X msg 266 51 1;
#X obj 68 208 outlet;
#X obj 309 13 inlet;
#X text 318 33 address of counter/register;
#X obj 58 -18 inlet;
#X text 60 -36 selector input;
#X connect 0 0 4 0;
#X connect 1 0 12 0;
#X connect 2 0 5 0;
#X connect 3 0 6 0;
#X connect 3 0 9 0;
#X connect 3 0 14 0;
#X connect 3 0 15 0;
#X connect 3 1 6 0;
#X connect 3 1 9 0;
#X connect 3 1 13 0;
#X connect 3 1 16 0;
#X connect 3 2 7 0;
#X connect 3 2 8 0;
#X connect 3 2 13 0;
#X connect 3 2 15 0;
#X connect 4 0 17 0;
#X connect 5 0 17 0;
#X connect 6 0 5 1;
#X connect 7 0 5 1;
#X connect 8 0 4 1;
#X connect 9 0 4 1;
#X connect 10 0 11 0;
#X connect 11 0 0 0;
#X connect 12 0 0 0;
#X connect 13 0 12 1;
#X connect 14 0 12 1;
#X connect 15 0 11 1;
#X connect 16 0 11 1;
#X connect 18 0 0 1;
#X connect 20 0 3 0;
#X connect 20 0 2 0;
#X restore 49 93 pd source selection guts;
#N canvas 714 511 450 300 source 0;
#X obj 184 114 expr $i1 >> $i2 & 1 \;;
#X obj 132 6 r counter;
#X obj 58 161 pipe;
#X obj 70 7 sel 2 3;
#X obj 131 184 spigot;
#X obj 58 182 spigot;
#X msg 91 162 0;
#X msg 119 162 1;
#X msg 164 161 0;
#X msg 192 161 1;
#X obj 205 18 r LFSR;
#X obj 205 73 spigot;
#X obj 132 72 spigot;
#X msg 165 52 0;
#X msg 193 52 1;
#X msg 238 51 0;
#X msg 266 51 1;
#X obj 68 208 outlet;
#X obj 309 13 inlet;
#X text 318 33 address of counter/register;
#X obj 58 -18 inlet;
#X text 60 -36 selector input;
#X connect 0 0 4 0;
#X connect 1 0 12 0;
#X connect 2 0 5 0;
#X connect 3 0 6 0;
#X connect 3 0 9 0;
#X connect 3 0 14 0;
#X connect 3 0 15 0;
#X connect 3 1 6 0;
#X connect 3 1 9 0;
#X connect 3 1 13 0;
#X connect 3 1 16 0;
#X connect 3 2 7 0;
#X connect 3 2 8 0;
#X connect 3 2 13 0;
#X connect 3 2 15 0;
#X connect 4 0 17 0;
#X connect 5 0 17 0;
#X connect 6 0 5 1;
#X connect 7 0 5 1;
#X connect 8 0 4 1;
#X connect 9 0 4 1;
#X connect 10 0 11 0;
#X connect 11 0 0 0;
#X connect 12 0 0 0;
#X connect 13 0 12 1;
#X connect 14 0 12 1;
#X connect 15 0 11 1;
#X connect 16 0 11 1;
#X connect 18 0 0 1;
#X connect 20 0 3 0;
#X connect 20 0 2 0;
#X restore 318 107 pd source selection guts;
#N canvas 714 511 450 300 source 0;
#X obj 184 114 expr $i1 >> $i2 & 1 \;;
#X obj 132 6 r counter;
#X obj 58 161 pipe;
#X obj 70 7 sel 2 3;
#X obj 131 184 spigot;
#X obj 58 182 spigot;
#X msg 91 162 0;
#X msg 119 162 1;
#X msg 164 161 0;
#X msg 192 161 1;
#X obj 205 18 r LFSR;
#X obj 205 73 spigot;
#X obj 132 72 spigot;
#X msg 165 52 0;
#X msg 193 52 1;
#X msg 238 51 0;
#X msg 266 51 1;
#X obj 68 208 outlet;
#X obj 309 13 inlet;
#X text 318 33 address of counter/register;
#X obj 58 -18 inlet;
#X text 60 -36 selector input;
#X connect 0 0 4 0;
#X connect 1 0 12 0;
#X connect 2 0 5 0;
#X connect 3 0 6 0;
#X connect 3 0 9 0;
#X connect 3 0 14 0;
#X connect 3 0 15 0;
#X connect 3 1 6 0;
#X connect 3 1 9 0;
#X connect 3 1 13 0;
#X connect 3 1 16 0;
#X connect 3 2 7 0;
#X connect 3 2 8 0;
#X connect 3 2 13 0;
#X connect 3 2 15 0;
#X connect 4 0 17 0;
#X connect 5 0 17 0;
#X connect 6 0 5 1;
#X connect 7 0 5 1;
#X connect 8 0 4 1;
#X connect 9 0 4 1;
#X connect 10 0 11 0;
#X connect 11 0 0 0;
#X connect 12 0 0 0;
#X connect 13 0 12 1;
#X connect 14 0 12 1;
#X connect 15 0 11 1;
#X connect 16 0 11 1;
#X connect 18 0 0 1;
#X connect 20 0 3 0;
#X connect 20 0 2 0;
#X restore 544 106 pd source selection guts;
#N canvas 714 511 450 300 source 0;
#X obj 184 114 expr $i1 >> $i2 & 1 \;;
#X obj 132 6 r counter;
#X obj 58 161 pipe;
#X obj 70 7 sel 2 3;
#X obj 131 184 spigot;
#X obj 58 182 spigot;
#X msg 91 162 0;
#X msg 119 162 1;
#X msg 164 161 0;
#X msg 192 161 1;
#X obj 205 18 r LFSR;
#X obj 205 73 spigot;
#X obj 132 72 spigot;
#X msg 165 52 0;
#X msg 193 52 1;
#X msg 238 51 0;
#X msg 266 51 1;
#X obj 68 208 outlet;
#X obj 309 13 inlet;
#X text 318 33 address of counter/register;
#X obj 58 -18 inlet;
#X text 60 -36 selector input;
#X connect 0 0 4 0;
#X connect 1 0 12 0;
#X connect 2 0 5 0;
#X connect 3 0 6 0;
#X connect 3 0 9 0;
#X connect 3 0 14 0;
#X connect 3 0 15 0;
#X connect 3 1 6 0;
#X connect 3 1 9 0;
#X connect 3 1 13 0;
#X connect 3 1 16 0;
#X connect 3 2 7 0;
#X connect 3 2 8 0;
#X connect 3 2 13 0;
#X connect 3 2 15 0;
#X connect 4 0 17 0;
#X connect 5 0 17 0;
#X connect 6 0 5 1;
#X connect 7 0 5 1;
#X connect 8 0 4 1;
#X connect 9 0 4 1;
#X connect 10 0 11 0;
#X connect 11 0 0 0;
#X connect 12 0 0 0;
#X connect 13 0 12 1;
#X connect 14 0 12 1;
#X connect 15 0 11 1;
#X connect 16 0 11 1;
#X connect 18 0 0 1;
#X connect 20 0 3 0;
#X connect 20 0 2 0;
#X restore 830 112 pd source selection guts;
#N canvas 714 511 450 300 source 0;
#X obj 184 114 expr $i1 >> $i2 & 1 \;;
#X obj 132 6 r counter;
#X obj 58 161 pipe;
#X obj 70 7 sel 2 3;
#X obj 131 184 spigot;
#X obj 58 182 spigot;
#X msg 91 162 0;
#X msg 119 162 1;
#X msg 164 161 0;
#X msg 192 161 1;
#X obj 205 18 r LFSR;
#X obj 205 73 spigot;
#X obj 132 72 spigot;
#X msg 165 52 0;
#X msg 193 52 1;
#X msg 238 51 0;
#X msg 266 51 1;
#X obj 68 208 outlet;
#X obj 309 13 inlet;
#X text 318 33 address of counter/register;
#X obj 58 -18 inlet;
#X text 60 -36 selector input;
#X connect 0 0 4 0;
#X connect 1 0 12 0;
#X connect 2 0 5 0;
#X connect 3 0 6 0;
#X connect 3 0 9 0;
#X connect 3 0 14 0;
#X connect 3 0 15 0;
#X connect 3 1 6 0;
#X connect 3 1 9 0;
#X connect 3 1 13 0;
#X connect 3 1 16 0;
#X connect 3 2 7 0;
#X connect 3 2 8 0;
#X connect 3 2 13 0;
#X connect 3 2 15 0;
#X connect 4 0 17 0;
#X connect 5 0 17 0;
#X connect 6 0 5 1;
#X connect 7 0 5 1;
#X connect 8 0 4 1;
#X connect 9 0 4 1;
#X connect 10 0 11 0;
#X connect 11 0 0 0;
#X connect 12 0 0 0;
#X connect 13 0 12 1;
#X connect 14 0 12 1;
#X connect 15 0 11 1;
#X connect 16 0 11 1;
#X connect 18 0 0 1;
#X connect 20 0 3 0;
#X connect 20 0 2 0;
#X restore 1109 111 pd source selection guts;
#X connect 5 0 15 0;
#X connect 6 0 15 1;
#X connect 7 0 16 0;
#X connect 8 0 16 1;
#X connect 9 0 17 0;
#X connect 10 0 17 1;
#X connect 11 0 18 0;
#X connect 12 0 18 1;
#X connect 13 0 19 0;
#X connect 14 0 19 1;
#X connect 15 0 0 0;
#X connect 16 0 1 0;
#X connect 17 0 2 0;
#X connect 18 0 3 0;
#X connect 19 0 4 0;
#X restore 13 22 pd matrix guts 1;
#X obj 13 108 s SET_S1T2;
#X connect 0 0 3 0;
#X connect 1 0 0 0;
#X connect 2 0 0 0;
#X connect 2 1 0 1;
#X connect 2 1 1 0;
#X connect 2 2 0 2;
#X connect 2 2 1 0;
#X connect 2 3 0 3;
#X connect 2 3 1 0;
#X connect 2 4 0 4;
#X connect 2 4 1 0;
#X restore -130 114 pd S1T2;
#N canvas 836 23 384 144 D1N 0;
#X obj 13 73 expr ($i1 & 1) | ($i2 & 1) << 1 | ($i3 & 1) << 2 | ($i4
& 1) << 3 | ($i5 & 1) << 4 \;;
#X obj 44 50 t b;
#N canvas 511 272 1311 175 matrix 0;
#X obj 33 140 outlet;
#X obj 290 140 outlet;
#X obj 545 140 outlet;
#X obj 799 140 outlet;
#X obj 1055 140 outlet;
#X obj 19 20 r D1NA_SRC;
#X obj 209 20 r D1NA_C;
#X obj 276 20 r D1NB_SRC;
#X obj 466 20 r D1NB_C;
#X obj 531 20 r D1NC_SRC;
#X obj 722 20 r D1NC_C;
#X obj 785 20 r D1ND_SRC;
#X obj 975 20 r D1ND_C;
#X obj 1041 20 r D1NE_SRC;
#X obj 1234 20 r D1NE_C;
#N canvas 714 511 450 300 source 0;
#X obj 184 114 expr $i1 >> $i2 & 1 \;;
#X obj 132 6 r counter;
#X obj 58 161 pipe;
#X obj 70 7 sel 2 3;
#X obj 131 184 spigot;
#X obj 58 182 spigot;
#X msg 91 162 0;
#X msg 119 162 1;
#X msg 164 161 0;
#X msg 192 161 1;
#X obj 205 18 r LFSR;
#X obj 205 73 spigot;
#X obj 132 72 spigot;
#X msg 165 52 0;
#X msg 193 52 1;
#X msg 238 51 0;
#X msg 266 51 1;
#X obj 68 208 outlet;
#X obj 309 13 inlet;
#X text 318 33 address of counter/register;
#X obj 58 -18 inlet;
#X text 60 -36 selector input;
#X connect 0 0 4 0;
#X connect 1 0 12 0;
#X connect 2 0 5 0;
#X connect 3 0 6 0;
#X connect 3 0 9 0;
#X connect 3 0 14 0;
#X connect 3 0 15 0;
#X connect 3 1 6 0;
#X connect 3 1 9 0;
#X connect 3 1 13 0;
#X connect 3 1 16 0;
#X connect 3 2 7 0;
#X connect 3 2 8 0;
#X connect 3 2 13 0;
#X connect 3 2 15 0;
#X connect 4 0 17 0;
#X connect 5 0 17 0;
#X connect 6 0 5 1;
#X connect 7 0 5 1;
#X connect 8 0 4 1;
#X connect 9 0 4 1;
#X connect 10 0 11 0;
#X connect 11 0 0 0;
#X connect 12 0 0 0;
#X connect 13 0 12 1;
#X connect 14 0 12 1;
#X connect 15 0 11 1;
#X connect 16 0 11 1;
#X connect 18 0 0 1;
#X connect 20 0 3 0;
#X connect 20 0 2 0;
#X restore 30 90 pd source selection guts;
#N canvas 714 511 450 300 source 0;
#X obj 184 114 expr $i1 >> $i2 & 1 \;;
#X obj 132 6 r counter;
#X obj 58 161 pipe;
#X obj 70 7 sel 2 3;
#X obj 131 184 spigot;
#X obj 58 182 spigot;
#X msg 91 162 0;
#X msg 119 162 1;
#X msg 164 161 0;
#X msg 192 161 1;
#X obj 205 18 r LFSR;
#X obj 205 73 spigot;
#X obj 132 72 spigot;
#X msg 165 52 0;
#X msg 193 52 1;
#X msg 238 51 0;
#X msg 266 51 1;
#X obj 68 208 outlet;
#X obj 309 13 inlet;
#X text 318 33 address of counter/register;
#X obj 58 -18 inlet;
#X text 60 -36 selector input;
#X connect 0 0 4 0;
#X connect 1 0 12 0;
#X connect 2 0 5 0;
#X connect 3 0 6 0;
#X connect 3 0 9 0;
#X connect 3 0 14 0;
#X connect 3 0 15 0;
#X connect 3 1 6 0;
#X connect 3 1 9 0;
#X connect 3 1 13 0;
#X connect 3 1 16 0;
#X connect 3 2 7 0;
#X connect 3 2 8 0;
#X connect 3 2 13 0;
#X connect 3 2 15 0;
#X connect 4 0 17 0;
#X connect 5 0 17 0;
#X connect 6 0 5 1;
#X connect 7 0 5 1;
#X connect 8 0 4 1;
#X connect 9 0 4 1;
#X connect 10 0 11 0;
#X connect 11 0 0 0;
#X connect 12 0 0 0;
#X connect 13 0 12 1;
#X connect 14 0 12 1;
#X connect 15 0 11 1;
#X connect 16 0 11 1;
#X connect 18 0 0 1;
#X connect 20 0 3 0;
#X connect 20 0 2 0;
#X restore 291 90 pd source selection guts;
#N canvas 714 511 450 300 source 0;
#X obj 184 114 expr $i1 >> $i2 & 1 \;;
#X obj 132 6 r counter;
#X obj 58 161 pipe;
#X obj 70 7 sel 2 3;
#X obj 131 184 spigot;
#X obj 58 182 spigot;
#X msg 91 162 0;
#X msg 119 162 1;
#X msg 164 161 0;
#X msg 192 161 1;
#X obj 205 18 r LFSR;
#X obj 205 73 spigot;
#X obj 132 72 spigot;
#X msg 165 52 0;
#X msg 193 52 1;
#X msg 238 51 0;
#X msg 266 51 1;
#X obj 68 208 outlet;
#X obj 309 13 inlet;
#X text 318 33 address of counter/register;
#X obj 58 -18 inlet;
#X text 60 -36 selector input;
#X connect 0 0 4 0;
#X connect 1 0 12 0;
#X connect 2 0 5 0;
#X connect 3 0 6 0;
#X connect 3 0 9 0;
#X connect 3 0 14 0;
#X connect 3 0 15 0;
#X connect 3 1 6 0;
#X connect 3 1 9 0;
#X connect 3 1 13 0;
#X connect 3 1 16 0;
#X connect 3 2 7 0;
#X connect 3 2 8 0;
#X connect 3 2 13 0;
#X connect 3 2 15 0;
#X connect 4 0 17 0;
#X connect 5 0 17 0;
#X connect 6 0 5 1;
#X connect 7 0 5 1;
#X connect 8 0 4 1;
#X connect 9 0 4 1;
#X connect 10 0 11 0;
#X connect 11 0 0 0;
#X connect 12 0 0 0;
#X connect 13 0 12 1;
#X connect 14 0 12 1;
#X connect 15 0 11 1;
#X connect 16 0 11 1;
#X connect 18 0 0 1;
#X connect 20 0 3 0;
#X connect 20 0 2 0;
#X restore 548 90 pd source selection guts;
#N canvas 714 511 450 300 source 0;
#X obj 184 114 expr $i1 >> $i2 & 1 \;;
#X obj 132 6 r counter;
#X obj 58 161 pipe;
#X obj 70 7 sel 2 3;
#X obj 131 184 spigot;
#X obj 58 182 spigot;
#X msg 91 162 0;
#X msg 119 162 1;
#X msg 164 161 0;
#X msg 192 161 1;
#X obj 205 18 r LFSR;
#X obj 205 73 spigot;
#X obj 132 72 spigot;
#X msg 165 52 0;
#X msg 193 52 1;
#X msg 238 51 0;
#X msg 266 51 1;
#X obj 68 208 outlet;
#X obj 309 13 inlet;
#X text 318 33 address of counter/register;
#X obj 58 -18 inlet;
#X text 60 -36 selector input;
#X connect 0 0 4 0;
#X connect 1 0 12 0;
#X connect 2 0 5 0;
#X connect 3 0 6 0;
#X connect 3 0 9 0;
#X connect 3 0 14 0;
#X connect 3 0 15 0;
#X connect 3 1 6 0;
#X connect 3 1 9 0;
#X connect 3 1 13 0;
#X connect 3 1 16 0;
#X connect 3 2 7 0;
#X connect 3 2 8 0;
#X connect 3 2 13 0;
#X connect 3 2 15 0;
#X connect 4 0 17 0;
#X connect 5 0 17 0;
#X connect 6 0 5 1;
#X connect 7 0 5 1;
#X connect 8 0 4 1;
#X connect 9 0 4 1;
#X connect 10 0 11 0;
#X connect 11 0 0 0;
#X connect 12 0 0 0;
#X connect 13 0 12 1;
#X connect 14 0 12 1;
#X connect 15 0 11 1;
#X connect 16 0 11 1;
#X connect 18 0 0 1;
#X connect 20 0 3 0;
#X connect 20 0 2 0;
#X restore 812 90 pd source selection guts;
#N canvas 714 511 450 300 source 0;
#X obj 184 114 expr $i1 >> $i2 & 1 \;;
#X obj 132 6 r counter;
#X obj 58 161 pipe;
#X obj 70 7 sel 2 3;
#X obj 131 184 spigot;
#X obj 58 182 spigot;
#X msg 91 162 0;
#X msg 119 162 1;
#X msg 164 161 0;
#X msg 192 161 1;
#X obj 205 18 r LFSR;
#X obj 205 73 spigot;
#X obj 132 72 spigot;
#X msg 165 52 0;
#X msg 193 52 1;
#X msg 238 51 0;
#X msg 266 51 1;
#X obj 68 208 outlet;
#X obj 309 13 inlet;
#X text 318 33 address of counter/register;
#X obj 58 -18 inlet;
#X text 60 -36 selector input;
#X connect 0 0 4 0;
#X connect 1 0 12 0;
#X connect 2 0 5 0;
#X connect 3 0 6 0;
#X connect 3 0 9 0;
#X connect 3 0 14 0;
#X connect 3 0 15 0;
#X connect 3 1 6 0;
#X connect 3 1 9 0;
#X connect 3 1 13 0;
#X connect 3 1 16 0;
#X connect 3 2 7 0;
#X connect 3 2 8 0;
#X connect 3 2 13 0;
#X connect 3 2 15 0;
#X connect 4 0 17 0;
#X connect 5 0 17 0;
#X connect 6 0 5 1;
#X connect 7 0 5 1;
#X connect 8 0 4 1;
#X connect 9 0 4 1;
#X connect 10 0 11 0;
#X connect 11 0 0 0;
#X connect 12 0 0 0;
#X connect 13 0 12 1;
#X connect 14 0 12 1;
#X connect 15 0 11 1;
#X connect 16 0 11 1;
#X connect 18 0 0 1;
#X connect 20 0 3 0;
#X connect 20 0 2 0;
#X restore 1062 90 pd source selection guts;
#X connect 5 0 15 0;
#X connect 6 0 15 1;
#X connect 7 0 16 0;
#X connect 8 0 16 1;
#X connect 9 0 17 0;
#X connect 10 0 17 1;
#X connect 11 0 18 0;
#X connect 12 0 18 1;
#X connect 13 0 19 0;
#X connect 14 0 19 1;
#X connect 15 0 0 0;
#X connect 16 0 1 0;
#X connect 17 0 2 0;
#X connect 18 0 3 0;
#X connect 19 0 4 0;
#X restore 13 22 pd matrix guts 1;
#X obj 13 108 s SET_D1N;
#X connect 0 0 3 0;
#X connect 1 0 0 0;
#X connect 2 0 0 0;
#X connect 2 1 0 1;
#X connect 2 1 1 0;
#X connect 2 2 0 2;
#X connect 2 2 1 0;
#X connect 2 3 0 3;
#X connect 2 3 1 0;
#X connect 2 4 0 4;
#X connect 2 4 1 0;
#X restore 708 55 pd D1N;
#X obj 445 34 hradio 15 1 0 16 D1NA_C empty empty 0 -8 0 10 -262144
-1 -1 0;
#X obj 381 34 hradio 15 1 0 4 D1NA_SRC empty A -10 8 0 10 -262144 -1
-1 1;
#X obj 445 52 hradio 15 1 0 16 D1NB_C empty empty 0 -8 0 10 -262144
-1 -1 0;
#X obj 381 52 hradio 15 1 0 4 D1NB_SRC empty B -10 8 0 10 -262144 -1
-1 0;
#X obj 445 70 hradio 15 1 0 16 D1NC_C empty empty 0 -8 0 10 -262144
-1 -1 0;
#X obj 381 70 hradio 15 1 0 4 D1NC_SRC empty C -10 8 0 10 -262144 -1
-1 0;
#X obj 445 88 hradio 15 1 0 16 D1ND_C empty empty 0 -8 0 10 -262144
-1 -1 0;
#X obj 381 88 hradio 15 1 0 4 D1ND_SRC empty D -10 8 0 10 -262144 -1
-1 0;
#X obj 445 106 hradio 15 1 0 16 D1NE_C empty empty 0 -8 0 10 -262144
-1 -1 0;
#X obj 381 106 hradio 15 1 0 4 D1NE_SRC empty E -10 8 0 10 -262144
-1 -1 0;
#N canvas 954 239 256 195 S1M 0;
#X obj 22 -65 r S1T1EN_SRC;
#X obj 162 -64 r S1T1EN_C;
#X obj 22 -24 s SET_S1T1E;
#X obj 22 39 s SET_S1T2E;
#X obj 22 -3 r S1T2EN_SRC;
#X obj 163 -3 r S1T2EN_C;
#X obj 22 101 s SET_S1M;
#X obj 22 59 r S1M_SRC;
#X obj 163 59 r S1M_C;
#N canvas 714 511 450 300 source 0;
#X obj 184 114 expr $i1 >> $i2 & 1 \;;
#X obj 132 6 r counter;
#X obj 58 161 pipe;
#X obj 70 7 sel 2 3;
#X obj 131 184 spigot;
#X obj 58 182 spigot;
#X msg 91 162 0;
#X msg 119 162 1;
#X msg 164 161 0;
#X msg 192 161 1;
#X obj 205 18 r LFSR;
#X obj 205 73 spigot;
#X obj 132 72 spigot;
#X msg 165 52 0;
#X msg 193 52 1;
#X msg 238 51 0;
#X msg 266 51 1;
#X obj 68 208 outlet;
#X obj 309 13 inlet;
#X text 318 33 address of counter/register;
#X obj 58 -18 inlet;
#X text 60 -36 selector input;
#X connect 0 0 4 0;
#X connect 1 0 12 0;
#X connect 2 0 5 0;
#X connect 3 0 6 0;
#X connect 3 0 9 0;
#X connect 3 0 14 0;
#X connect 3 0 15 0;
#X connect 3 1 6 0;
#X connect 3 1 9 0;
#X connect 3 1 13 0;
#X connect 3 1 16 0;
#X connect 3 2 7 0;
#X connect 3 2 8 0;
#X connect 3 2 13 0;
#X connect 3 2 15 0;
#X connect 4 0 17 0;
#X connect 5 0 17 0;
#X connect 6 0 5 1;
#X connect 7 0 5 1;
#X connect 8 0 4 1;
#X connect 9 0 4 1;
#X connect 10 0 11 0;
#X connect 11 0 0 0;
#X connect 12 0 0 0;
#X connect 13 0 12 1;
#X connect 14 0 12 1;
#X connect 15 0 11 1;
#X connect 16 0 11 1;
#X connect 18 0 0 1;
#X connect 20 0 3 0;
#X connect 20 0 2 0;
#X restore 22 80 pd source selection guts;
#N canvas 714 511 450 300 source 0;
#X obj 184 114 expr $i1 >> $i2 & 1 \;;
#X obj 132 6 r counter;
#X obj 58 161 pipe;
#X obj 70 7 sel 2 3;
#X obj 131 184 spigot;
#X obj 58 182 spigot;
#X msg 91 162 0;
#X msg 119 162 1;
#X msg 164 161 0;
#X msg 192 161 1;
#X obj 205 18 r LFSR;
#X obj 205 73 spigot;
#X obj 132 72 spigot;
#X msg 165 52 0;
#X msg 193 52 1;
#X msg 238 51 0;
#X msg 266 51 1;
#X obj 68 208 outlet;
#X obj 309 13 inlet;
#X text 318 33 address of counter/register;
#X obj 58 -18 inlet;
#X text 60 -36 selector input;
#X connect 0 0 4 0;
#X connect 1 0 12 0;
#X connect 2 0 5 0;
#X connect 3 0 6 0;
#X connect 3 0 9 0;
#X connect 3 0 14 0;
#X connect 3 0 15 0;
#X connect 3 1 6 0;
#X connect 3 1 9 0;
#X connect 3 1 13 0;
#X connect 3 1 16 0;
#X connect 3 2 7 0;
#X connect 3 2 8 0;
#X connect 3 2 13 0;
#X connect 3 2 15 0;
#X connect 4 0 17 0;
#X connect 5 0 17 0;
#X connect 6 0 5 1;
#X connect 7 0 5 1;
#X connect 8 0 4 1;
#X connect 9 0 4 1;
#X connect 10 0 11 0;
#X connect 11 0 0 0;
#X connect 12 0 0 0;
#X connect 13 0 12 1;
#X connect 14 0 12 1;
#X connect 15 0 11 1;
#X connect 16 0 11 1;
#X connect 18 0 0 1;
#X connect 20 0 3 0;
#X connect 20 0 2 0;
#X restore 22 -44 pd source selection guts;
#N canvas 714 511 450 300 source 0;
#X obj 184 114 expr $i1 >> $i2 & 1 \;;
#X obj 132 6 r counter;
#X obj 58 161 pipe;
#X obj 70 7 sel 2 3;
#X obj 131 184 spigot;
#X obj 58 182 spigot;
#X msg 91 162 0;
#X msg 119 162 1;
#X msg 164 161 0;
#X msg 192 161 1;
#X obj 205 18 r LFSR;
#X obj 205 73 spigot;
#X obj 132 72 spigot;
#X msg 165 52 0;
#X msg 193 52 1;
#X msg 238 51 0;
#X msg 266 51 1;
#X obj 68 208 outlet;
#X obj 309 13 inlet;
#X text 318 33 address of counter/register;
#X obj 58 -18 inlet;
#X text 60 -36 selector input;
#X connect 0 0 4 0;
#X connect 1 0 12 0;
#X connect 2 0 5 0;
#X connect 3 0 6 0;
#X connect 3 0 9 0;
#X connect 3 0 14 0;
#X connect 3 0 15 0;
#X connect 3 1 6 0;
#X connect 3 1 9 0;
#X connect 3 1 13 0;
#X connect 3 1 16 0;
#X connect 3 2 7 0;
#X connect 3 2 8 0;
#X connect 3 2 13 0;
#X connect 3 2 15 0;
#X connect 4 0 17 0;
#X connect 5 0 17 0;
#X connect 6 0 5 1;
#X connect 7 0 5 1;
#X connect 8 0 4 1;
#X connect 9 0 4 1;
#X connect 10 0 11 0;
#X connect 11 0 0 0;
#X connect 12 0 0 0;
#X connect 13 0 12 1;
#X connect 14 0 12 1;
#X connect 15 0 11 1;
#X connect 16 0 11 1;
#X connect 18 0 0 1;
#X connect 20 0 3 0;
#X connect 20 0 2 0;
#X restore 22 18 pd source selection guts;
#X connect 0 0 10 0;
#X connect 1 0 10 1;
#X connect 4 0 11 0;
#X connect 5 0 11 1;
#X connect 7 0 9 0;
#X connect 8 0 9 1;
#X connect 9 0 6 0;
#X connect 10 0 2 0;
#X connect 11 0 3 0;
#X restore -130 134 pd S1M S1T1E S1T2E;
#X obj 445 320 hradio 15 1 0 16 D2NA_C empty empty 0 -8 0 10 -262144
-1 -1 0;
#X obj 381 320 hradio 15 1 0 4 D2NA_SRC empty A -10 8 0 10 -262144
-1 -1 1;
#X obj 445 338 hradio 15 1 0 16 D2NB_C empty empty 0 -8 0 10 -262144
-1 -1 0;
#X obj 381 338 hradio 15 1 0 4 D2NB_SRC empty B -10 8 0 10 -262144
-1 -1 0;
#X obj 445 356 hradio 15 1 0 16 D2NC_C empty empty 0 -8 0 10 -262144
-1 -1 0;
#X obj 381 356 hradio 15 1 0 4 D2NC_SRC empty C -10 8 0 10 -262144
-1 -1 0;
#X obj 445 374 hradio 15 1 0 16 D2ND_C empty empty 0 -8 0 10 -262144
-1 -1 0;
#X obj 381 374 hradio 15 1 0 4 D2ND_SRC empty D -10 8 0 10 -262144
-1 -1 0;
#X obj 445 392 hradio 15 1 0 16 D2NE_C empty empty 0 -8 0 10 -262144
-1 -1 0;
#X obj 381 392 hradio 15 1 0 4 D2NE_SRC empty E -10 8 0 10 -262144
-1 -1 0;
#N canvas 121 889 450 300 D2N 0;
#X obj 13 73 expr ($i1 & 1) | ($i2 & 1) << 1 | ($i3 & 1) << 2 | ($i4
& 1) << 3 | ($i5 & 1) << 4 \;;
#X obj 44 50 t b;
#N canvas 533 927 1307 233 matrix 0;
#X obj 19 175 outlet;
#X obj 276 185 outlet;
#X obj 558 106 outlet;
#X obj 785 190 outlet;
#X obj 1041 207 outlet;
#X obj 19 20 r D2NA_SRC;
#X obj 209 20 r D2NA_C;
#X obj 276 20 r D2NB_SRC;
#X obj 466 20 r D2NB_C;
#X obj 552 59 r D2NC_SRC;
#X obj 696 59 r D2NC_C;
#X obj 781 40 r D2ND_SRC;
#X obj 975 22 r D2ND_C;
#X obj 1041 25 r D2NE_SRC;
#X obj 1234 25 r D2NE_C;
#N canvas 714 511 450 300 source 0;
#X obj 184 114 expr $i1 >> $i2 & 1 \;;
#X obj 132 6 r counter;
#X obj 58 161 pipe;
#X obj 70 7 sel 2 3;
#X obj 131 184 spigot;
#X obj 58 182 spigot;
#X msg 91 162 0;
#X msg 119 162 1;
#X msg 164 161 0;
#X msg 192 161 1;
#X obj 205 18 r LFSR;
#X obj 205 73 spigot;
#X obj 132 72 spigot;
#X msg 165 52 0;
#X msg 193 52 1;
#X msg 238 51 0;
#X msg 266 51 1;
#X obj 68 208 outlet;
#X obj 309 13 inlet;
#X text 318 33 address of counter/register;
#X obj 58 -18 inlet;
#X text 60 -36 selector input;
#X connect 0 0 4 0;
#X connect 1 0 12 0;
#X connect 2 0 5 0;
#X connect 3 0 6 0;
#X connect 3 0 9 0;
#X connect 3 0 14 0;
#X connect 3 0 15 0;
#X connect 3 1 6 0;
#X connect 3 1 9 0;
#X connect 3 1 13 0;
#X connect 3 1 16 0;
#X connect 3 2 7 0;
#X connect 3 2 8 0;
#X connect 3 2 13 0;
#X connect 3 2 15 0;
#X connect 4 0 17 0;
#X connect 5 0 17 0;
#X connect 6 0 5 1;
#X connect 7 0 5 1;
#X connect 8 0 4 1;
#X connect 9 0 4 1;
#X connect 10 0 11 0;
#X connect 11 0 0 0;
#X connect 12 0 0 0;
#X connect 13 0 12 1;
#X connect 14 0 12 1;
#X connect 15 0 11 1;
#X connect 16 0 11 1;
#X connect 18 0 0 1;
#X connect 20 0 3 0;
#X connect 20 0 2 0;
#X restore 68 81 pd source selection guts;
#N canvas 714 511 450 300 source 0;
#X obj 184 114 expr $i1 >> $i2 & 1 \;;
#X obj 132 6 r counter;
#X obj 58 161 pipe;
#X obj 70 7 sel 2 3;
#X obj 131 184 spigot;
#X obj 58 182 spigot;
#X msg 91 162 0;
#X msg 119 162 1;
#X msg 164 161 0;
#X msg 192 161 1;
#X obj 205 18 r LFSR;
#X obj 205 73 spigot;
#X obj 132 72 spigot;
#X msg 165 52 0;
#X msg 193 52 1;
#X msg 238 51 0;
#X msg 266 51 1;
#X obj 68 208 outlet;
#X obj 309 13 inlet;
#X text 318 33 address of counter/register;
#X obj 58 -18 inlet;
#X text 60 -36 selector input;
#X connect 0 0 4 0;
#X connect 1 0 12 0;
#X connect 2 0 5 0;
#X connect 3 0 6 0;
#X connect 3 0 9 0;
#X connect 3 0 14 0;
#X connect 3 0 15 0;
#X connect 3 1 6 0;
#X connect 3 1 9 0;
#X connect 3 1 13 0;
#X connect 3 1 16 0;
#X connect 3 2 7 0;
#X connect 3 2 8 0;
#X connect 3 2 13 0;
#X connect 3 2 15 0;
#X connect 4 0 17 0;
#X connect 5 0 17 0;
#X connect 6 0 5 1;
#X connect 7 0 5 1;
#X connect 8 0 4 1;
#X connect 9 0 4 1;
#X connect 10 0 11 0;
#X connect 11 0 0 0;
#X connect 12 0 0 0;
#X connect 13 0 12 1;
#X connect 14 0 12 1;
#X connect 15 0 11 1;
#X connect 16 0 11 1;
#X connect 18 0 0 1;
#X connect 20 0 3 0;
#X connect 20 0 2 0;
#X restore 310 99 pd source selection guts;
#N canvas 714 511 450 300 source 0;
#X obj 184 114 expr $i1 >> $i2 & 1 \;;
#X obj 132 6 r counter;
#X obj 58 161 pipe;
#X obj 70 7 sel 2 3;
#X obj 131 184 spigot;
#X obj 58 182 spigot;
#X msg 91 162 0;
#X msg 119 162 1;
#X msg 164 161 0;
#X msg 192 161 1;
#X obj 205 18 r LFSR;
#X obj 205 73 spigot;
#X obj 132 72 spigot;
#X msg 165 52 0;
#X msg 193 52 1;
#X msg 238 51 0;
#X msg 266 51 1;
#X obj 68 208 outlet;
#X obj 309 13 inlet;
#X text 318 33 address of counter/register;
#X obj 58 -18 inlet;
#X text 60 -36 selector input;
#X connect 0 0 4 0;
#X connect 1 0 12 0;
#X connect 2 0 5 0;
#X connect 3 0 6 0;
#X connect 3 0 9 0;
#X connect 3 0 14 0;
#X connect 3 0 15 0;
#X connect 3 1 6 0;
#X connect 3 1 9 0;
#X connect 3 1 13 0;
#X connect 3 1 16 0;
#X connect 3 2 7 0;
#X connect 3 2 8 0;
#X connect 3 2 13 0;
#X connect 3 2 15 0;
#X connect 4 0 17 0;
#X connect 5 0 17 0;
#X connect 6 0 5 1;
#X connect 7 0 5 1;
#X connect 8 0 4 1;
#X connect 9 0 4 1;
#X connect 10 0 11 0;
#X connect 11 0 0 0;
#X connect 12 0 0 0;
#X connect 13 0 12 1;
#X connect 14 0 12 1;
#X connect 15 0 11 1;
#X connect 16 0 11 1;
#X connect 18 0 0 1;
#X connect 20 0 3 0;
#X connect 20 0 2 0;
#X restore 555 81 pd source selection guts;
#N canvas 714 511 450 300 source 0;
#X obj 184 114 expr $i1 >> $i2 & 1 \;;
#X obj 132 6 r counter;
#X obj 58 161 pipe;
#X obj 70 7 sel 2 3;
#X obj 131 184 spigot;
#X obj 58 182 spigot;
#X msg 91 162 0;
#X msg 119 162 1;
#X msg 164 161 0;
#X msg 192 161 1;
#X obj 205 18 r LFSR;
#X obj 205 73 spigot;
#X obj 132 72 spigot;
#X msg 165 52 0;
#X msg 193 52 1;
#X msg 238 51 0;
#X msg 266 51 1;
#X obj 68 208 outlet;
#X obj 309 13 inlet;
#X text 318 33 address of counter/register;
#X obj 58 -18 inlet;
#X text 60 -36 selector input;
#X connect 0 0 4 0;
#X connect 1 0 12 0;
#X connect 2 0 5 0;
#X connect 3 0 6 0;
#X connect 3 0 9 0;
#X connect 3 0 14 0;
#X connect 3 0 15 0;
#X connect 3 1 6 0;
#X connect 3 1 9 0;
#X connect 3 1 13 0;
#X connect 3 1 16 0;
#X connect 3 2 7 0;
#X connect 3 2 8 0;
#X connect 3 2 13 0;
#X connect 3 2 15 0;
#X connect 4 0 17 0;
#X connect 5 0 17 0;
#X connect 6 0 5 1;
#X connect 7 0 5 1;
#X connect 8 0 4 1;
#X connect 9 0 4 1;
#X connect 10 0 11 0;
#X connect 11 0 0 0;
#X connect 12 0 0 0;
#X connect 13 0 12 1;
#X connect 14 0 12 1;
#X connect 15 0 11 1;
#X connect 16 0 11 1;
#X connect 18 0 0 1;
#X connect 20 0 3 0;
#X connect 20 0 2 0;
#X restore 809 97 pd source selection guts;
#N canvas 714 511 450 300 source 0;
#X obj 184 114 expr $i1 >> $i2 & 1 \;;
#X obj 132 6 r counter;
#X obj 58 161 pipe;
#X obj 70 7 sel 2 3;
#X obj 131 184 spigot;
#X obj 58 182 spigot;
#X msg 91 162 0;
#X msg 119 162 1;
#X msg 164 161 0;
#X msg 192 161 1;
#X obj 205 18 r LFSR;
#X obj 205 73 spigot;
#X obj 132 72 spigot;
#X msg 165 52 0;
#X msg 193 52 1;
#X msg 238 51 0;
#X msg 266 51 1;
#X obj 68 208 outlet;
#X obj 309 13 inlet;
#X text 318 33 address of counter/register;
#X obj 58 -18 inlet;
#X text 60 -36 selector input;
#X connect 0 0 4 0;
#X connect 1 0 12 0;
#X connect 2 0 5 0;
#X connect 3 0 6 0;
#X connect 3 0 9 0;
#X connect 3 0 14 0;
#X connect 3 0 15 0;
#X connect 3 1 6 0;
#X connect 3 1 9 0;
#X connect 3 1 13 0;
#X connect 3 1 16 0;
#X connect 3 2 7 0;
#X connect 3 2 8 0;
#X connect 3 2 13 0;
#X connect 3 2 15 0;
#X connect 4 0 17 0;
#X connect 5 0 17 0;
#X connect 6 0 5 1;
#X connect 7 0 5 1;
#X connect 8 0 4 1;
#X connect 9 0 4 1;
#X connect 10 0 11 0;
#X connect 11 0 0 0;
#X connect 12 0 0 0;
#X connect 13 0 12 1;
#X connect 14 0 12 1;
#X connect 15 0 11 1;
#X connect 16 0 11 1;
#X connect 18 0 0 1;
#X connect 20 0 3 0;
#X connect 20 0 2 0;
#X restore 1074 89 pd source selection guts;
#X connect 5 0 15 0;
#X connect 6 0 15 1;
#X connect 7 0 16 0;
#X connect 8 0 16 1;
#X connect 9 0 17 0;
#X connect 10 0 17 1;
#X connect 11 0 18 0;
#X connect 12 0 18 1;
#X connect 13 0 19 0;
#X connect 14 0 19 1;
#X connect 15 0 0 0;
#X connect 16 0 1 0;
#X connect 17 0 2 0;
#X connect 18 0 3 0;
#X connect 19 0 4 0;
#X restore 13 22 pd matrix guts 1;
#X obj 13 108 s SET_D2N;
#X connect 0 0 3 0;
#X connect 1 0 0 0;
#X connect 2 0 0 0;
#X connect 2 1 0 1;
#X connect 2 1 1 0;
#X connect 2 2 0 2;
#X connect 2 2 1 0;
#X connect 2 3 0 3;
#X connect 2 3 1 0;
#X connect 2 4 0 4;
#X connect 2 4 1 0;
#X restore 708 314 pd D2N;
#X obj 121 343 hradio 15 1 0 16 S2T1A_C empty empty 0 -8 0 10 -262144
-1 -1 0;
#X obj 57 343 hradio 15 1 0 4 S2T1A_SRC empty A -10 8 0 10 -262144
-1 -1 0;
#X obj 121 361 hradio 15 1 0 16 S2T1B_C empty empty 0 -8 0 10 -262144
-1 -1 0;
#X obj 57 361 hradio 15 1 0 4 S2T1B_SRC empty B -10 8 0 10 -262144
-1 -1 0;
#X obj 121 379 hradio 15 1 0 16 S2T1C_C empty empty 0 -8 0 10 -262144
-1 -1 0;
#X obj 57 379 hradio 15 1 0 4 S2T1C_SRC empty C -10 8 0 10 -262144
-1 -1 0;
#X obj 121 397 hradio 15 1 0 16 S2T1D_C empty empty 0 -8 0 10 -262144
-1 -1 0;
#X obj 57 397 hradio 15 1 0 4 S2T1D_SRC empty D -10 8 0 10 -262144
-1 -1 0;
#X obj 121 415 hradio 15 1 0 16 S2T1E_C empty empty 0 -8 0 10 -262144
-1 -1 0;
#X obj 57 415 hradio 15 1 0 4 S2T1E_SRC empty E -10 8 0 10 -262144
-1 -1 0;
#X obj 121 461 hradio 15 1 0 16 S2T2A_C empty empty 0 -8 0 10 -262144
-1 -1 0;
#X obj 57 461 hradio 15 1 0 4 S2T2A_SRC empty A -10 8 0 10 -262144
-1 -1 0;
#X obj 121 479 hradio 15 1 0 16 S2T2B_C empty empty 0 -8 0 10 -262144
-1 -1 0;
#X obj 57 479 hradio 15 1 0 4 S2T2B_SRC empty B -10 8 0 10 -262144
-1 -1 0;
#X obj 121 497 hradio 15 1 0 16 S2T2C_C empty empty 0 -8 0 10 -262144
-1 -1 0;
#X obj 57 497 hradio 15 1 0 4 S2T2C_SRC empty C -10 8 0 10 -262144
-1 -1 0;
#X obj 121 515 hradio 15 1 0 16 S2T2D_C empty empty 0 -8 0 10 -262144
-1 -1 0;
#X obj 57 515 hradio 15 1 0 4 S2T2D_SRC empty D -10 8 0 10 -262144
-1 -1 0;
#X obj 121 533 hradio 15 1 0 16 S2T2E_C empty empty 0 -8 0 10 -262144
-1 -1 0;
#X obj 57 533 hradio 15 1 0 4 S2T2E_SRC empty E -10 8 0 10 -262144
-1 -1 0;
#X obj 121 320 hradio 15 1 0 16 S2T1EN_C empty empty 0 -8 0 10 -262144
-1 -1 0;
#X obj 57 320 hradio 15 1 0 4 S2T1EN_SRC empty S2T1E -30 8 0 10 -262144
-1 -1 0;
#X obj 121 438 hradio 15 1 0 16 S2T2EN_C empty empty 0 -8 0 10 -262144
-1 -1 0;
#X obj 57 438 hradio 15 1 0 4 S2T2EN_SRC empty S2T2E -30 8 0 10 -262144
-1 -1 0;
#X obj 121 556 hradio 15 1 0 16 S2M_C empty empty 0 -8 0 10 -262144
-1 -1 0;
#X obj 57 556 hradio 15 1 0 4 S2M_SRC empty S2MOD -30 8 0 10 -262144
-1 -1 2;
#N canvas 905 409 217 182 S2M 0;
#X obj -78 -272 r S2M_SRC;
#X obj 63 -272 r S2M_C;
#X obj -78 -234 s SET_S2M;
#X obj -78 -386 r S2T1EN_SRC;
#X obj -78 -348 s SET_S2T1E;
#X obj 63 -386 r S2T1EN_C;
#X obj -78 -329 r S2T2EN_SRC;
#X obj 63 -329 r S2T2EN_C;
#N canvas 714 511 450 300 source 0;
#X obj 184 114 expr $i1 >> $i2 & 1 \;;
#X obj 132 6 r counter;
#X obj 58 161 pipe;
#X obj 70 7 sel 2 3;
#X obj 131 184 spigot;
#X obj 58 182 spigot;
#X msg 91 162 0;
#X msg 119 162 1;
#X msg 164 161 0;
#X msg 192 161 1;
#X obj 205 18 r LFSR;
#X obj 205 73 spigot;
#X obj 132 72 spigot;
#X msg 165 52 0;
#X msg 193 52 1;
#X msg 238 51 0;
#X msg 266 51 1;
#X obj 68 208 outlet;
#X obj 309 13 inlet;
#X text 318 33 address of counter/register;
#X obj 58 -18 inlet;
#X text 60 -36 selector input;
#X connect 0 0 4 0;
#X connect 1 0 12 0;
#X connect 2 0 5 0;
#X connect 3 0 6 0;
#X connect 3 0 9 0;
#X connect 3 0 14 0;
#X connect 3 0 15 0;
#X connect 3 1 6 0;
#X connect 3 1 9 0;
#X connect 3 1 13 0;
#X connect 3 1 16 0;
#X connect 3 2 7 0;
#X connect 3 2 8 0;
#X connect 3 2 13 0;
#X connect 3 2 15 0;
#X connect 4 0 17 0;
#X connect 5 0 17 0;
#X connect 6 0 5 1;
#X connect 7 0 5 1;
#X connect 8 0 4 1;
#X connect 9 0 4 1;
#X connect 10 0 11 0;
#X connect 11 0 0 0;
#X connect 12 0 0 0;
#X connect 13 0 12 1;
#X connect 14 0 12 1;
#X connect 15 0 11 1;
#X connect 16 0 11 1;
#X connect 18 0 0 1;
#X connect 20 0 3 0;
#X connect 20 0 2 0;
#X restore -78 -310 pd source selection guts;
#N canvas 714 511 450 300 source 0;
#X obj 184 114 expr $i1 >> $i2 & 1 \;;
#X obj 132 6 r counter;
#X obj 58 161 pipe;
#X obj 70 7 sel 2 3;
#X obj 131 184 spigot;
#X obj 58 182 spigot;
#X msg 91 162 0;
#X msg 119 162 1;
#X msg 164 161 0;
#X msg 192 161 1;
#X obj 205 18 r LFSR;
#X obj 205 73 spigot;
#X obj 132 72 spigot;
#X msg 165 52 0;
#X msg 193 52 1;
#X msg 238 51 0;
#X msg 266 51 1;
#X obj 68 208 outlet;
#X obj 309 13 inlet;
#X text 318 33 address of counter/register;
#X obj 58 -18 inlet;
#X text 60 -36 selector input;
#X connect 0 0 4 0;
#X connect 1 0 12 0;
#X connect 2 0 5 0;
#X connect 3 0 6 0;
#X connect 3 0 9 0;
#X connect 3 0 14 0;
#X connect 3 0 15 0;
#X connect 3 1 6 0;
#X connect 3 1 9 0;
#X connect 3 1 13 0;
#X connect 3 1 16 0;
#X connect 3 2 7 0;
#X connect 3 2 8 0;
#X connect 3 2 13 0;
#X connect 3 2 15 0;
#X connect 4 0 17 0;
#X connect 5 0 17 0;
#X connect 6 0 5 1;
#X connect 7 0 5 1;
#X connect 8 0 4 1;
#X connect 9 0 4 1;
#X connect 10 0 11 0;
#X connect 11 0 0 0;
#X connect 12 0 0 0;
#X connect 13 0 12 1;
#X connect 14 0 12 1;
#X connect 15 0 11 1;
#X connect 16 0 11 1;
#X connect 18 0 0 1;
#X connect 20 0 3 0;
#X connect 20 0 2 0;
#X restore -78 -253 pd source selection guts;
#N canvas 714 511 450 300 source 0;
#X obj 184 114 expr $i1 >> $i2 & 1 \;;
#X obj 132 6 r counter;
#X obj 58 161 pipe;
#X obj 70 7 sel 2 3;
#X obj 131 184 spigot;
#X obj 58 182 spigot;
#X msg 91 162 0;
#X msg 119 162 1;
#X msg 164 161 0;
#X msg 192 161 1;
#X obj 205 18 r LFSR;
#X obj 205 73 spigot;
#X obj 132 72 spigot;
#X msg 165 52 0;
#X msg 193 52 1;
#X msg 238 51 0;
#X msg 266 51 1;
#X obj 68 208 outlet;
#X obj 309 13 inlet;
#X text 318 33 address of counter/register;
#X obj 58 -18 inlet;
#X text 60 -36 selector input;
#X connect 0 0 4 0;
#X connect 1 0 12 0;
#X connect 2 0 5 0;
#X connect 3 0 6 0;
#X connect 3 0 9 0;
#X connect 3 0 14 0;
#X connect 3 0 15 0;
#X connect 3 1 6 0;
#X connect 3 1 9 0;
#X connect 3 1 13 0;
#X connect 3 1 16 0;
#X connect 3 2 7 0;
#X connect 3 2 8 0;
#X connect 3 2 13 0;
#X connect 3 2 15 0;
#X connect 4 0 17 0;
#X connect 5 0 17 0;
#X connect 6 0 5 1;
#X connect 7 0 5 1;
#X connect 8 0 4 1;
#X connect 9 0 4 1;
#X connect 10 0 11 0;
#X connect 11 0 0 0;
#X connect 12 0 0 0;
#X connect 13 0 12 1;
#X connect 14 0 12 1;
#X connect 15 0 11 1;
#X connect 16 0 11 1;
#X connect 18 0 0 1;
#X connect 20 0 3 0;
#X connect 20 0 2 0;
#X restore -78 -367 pd source selection guts;
#X obj -78 -291 s SET_S2T2E;
#X connect 0 0 9 0;
#X connect 1 0 9 1;
#X connect 3 0 10 0;
#X connect 5 0 10 1;
#X connect 6 0 8 0;
#X connect 7 0 8 1;
#X connect 8 0 11 0;
#X connect 9 0 2 0;
#X connect 10 0 4 0;
#X restore -135 313 pd S2M S2T1E S2T2E;
#N canvas 127 195 450 300 S2T1 0;
#X obj 23 73 expr ($i1 & 1) | ($i2 & 1) << 1 | ($i3 & 1) << 2 | ($i4
& 1) << 3 | ($i5 & 1) << 4 \;;
#X obj 54 50 t b;
#N canvas 511 272 1312 264 matrix 0;
#X obj 19 175 outlet;
#X obj 300 180 outlet;
#X obj 521 214 outlet;
#X obj 784 212 outlet;
#X obj 1042 218 outlet;
#X obj 19 20 r S2T1A_SRC;
#X obj 209 20 r S2T1A_C;
#X obj 276 20 r S2T1B_SRC;
#X obj 466 20 r S2T1B_C;
#X obj 531 20 r S2T1C_SRC;
#X obj 722 20 r S2T1C_C;
#X obj 786 23 r S2T1D_SRC;
#X obj 975 22 r S2T1D_C;
#X obj 1041 25 r S2T1E_SRC;
#X obj 1208 25 r S2T1E_C;
#N canvas 714 511 450 300 source 0;
#X obj 184 114 expr $i1 >> $i2 & 1 \;;
#X obj 132 6 r counter;
#X obj 58 161 pipe;
#X obj 70 7 sel 2 3;
#X obj 131 184 spigot;
#X obj 58 182 spigot;
#X msg 91 162 0;
#X msg 119 162 1;
#X msg 164 161 0;
#X msg 192 161 1;
#X obj 205 18 r LFSR;
#X obj 205 73 spigot;
#X obj 132 72 spigot;
#X msg 165 52 0;
#X msg 193 52 1;
#X msg 238 51 0;
#X msg 266 51 1;
#X obj 68 208 outlet;
#X obj 309 13 inlet;
#X text 318 33 address of counter/register;
#X obj 58 -18 inlet;
#X text 60 -36 selector input;
#X connect 0 0 4 0;
#X connect 1 0 12 0;
#X connect 2 0 5 0;
#X connect 3 0 6 0;
#X connect 3 0 9 0;
#X connect 3 0 14 0;
#X connect 3 0 15 0;
#X connect 3 1 6 0;
#X connect 3 1 9 0;
#X connect 3 1 13 0;
#X connect 3 1 16 0;
#X connect 3 2 7 0;
#X connect 3 2 8 0;
#X connect 3 2 13 0;
#X connect 3 2 15 0;
#X connect 4 0 17 0;
#X connect 5 0 17 0;
#X connect 6 0 5 1;
#X connect 7 0 5 1;
#X connect 8 0 4 1;
#X connect 9 0 4 1;
#X connect 10 0 11 0;
#X connect 11 0 0 0;
#X connect 12 0 0 0;
#X connect 13 0 12 1;
#X connect 14 0 12 1;
#X connect 15 0 11 1;
#X connect 16 0 11 1;
#X connect 18 0 0 1;
#X connect 20 0 3 0;
#X connect 20 0 2 0;
#X restore 62 90 pd source selection guts;
#N canvas 714 511 450 300 source 0;
#X obj 184 114 expr $i1 >> $i2 & 1 \;;
#X obj 132 6 r counter;
#X obj 58 161 pipe;
#X obj 70 7 sel 2 3;
#X obj 131 184 spigot;
#X obj 58 182 spigot;
#X msg 91 162 0;
#X msg 119 162 1;
#X msg 164 161 0;
#X msg 192 161 1;
#X obj 205 18 r LFSR;
#X obj 205 73 spigot;
#X obj 132 72 spigot;
#X msg 165 52 0;
#X msg 193 52 1;
#X msg 238 51 0;
#X msg 266 51 1;
#X obj 68 208 outlet;
#X obj 309 13 inlet;
#X text 318 33 address of counter/register;
#X obj 58 -18 inlet;
#X text 60 -36 selector input;
#X connect 0 0 4 0;
#X connect 1 0 12 0;
#X connect 2 0 5 0;
#X connect 3 0 6 0;
#X connect 3 0 9 0;
#X connect 3 0 14 0;
#X connect 3 0 15 0;
#X connect 3 1 6 0;
#X connect 3 1 9 0;
#X connect 3 1 13 0;
#X connect 3 1 16 0;
#X connect 3 2 7 0;
#X connect 3 2 8 0;
#X connect 3 2 13 0;
#X connect 3 2 15 0;
#X connect 4 0 17 0;
#X connect 5 0 17 0;
#X connect 6 0 5 1;
#X connect 7 0 5 1;
#X connect 8 0 4 1;
#X connect 9 0 4 1;
#X connect 10 0 11 0;
#X connect 11 0 0 0;
#X connect 12 0 0 0;
#X connect 13 0 12 1;
#X connect 14 0 12 1;
#X connect 15 0 11 1;
#X connect 16 0 11 1;
#X connect 18 0 0 1;
#X connect 20 0 3 0;
#X connect 20 0 2 0;
#X restore 312 88 pd source selection guts;
#N canvas 714 511 450 300 source 0;
#X obj 184 114 expr $i1 >> $i2 & 1 \;;
#X obj 132 6 r counter;
#X obj 58 161 pipe;
#X obj 70 7 sel 2 3;
#X obj 131 184 spigot;
#X obj 58 182 spigot;
#X msg 91 162 0;
#X msg 119 162 1;
#X msg 164 161 0;
#X msg 192 161 1;
#X obj 205 18 r LFSR;
#X obj 205 73 spigot;
#X obj 132 72 spigot;
#X msg 165 52 0;
#X msg 193 52 1;
#X msg 238 51 0;
#X msg 266 51 1;
#X obj 68 208 outlet;
#X obj 309 13 inlet;
#X text 318 33 address of counter/register;
#X obj 58 -18 inlet;
#X text 60 -36 selector input;
#X connect 0 0 4 0;
#X connect 1 0 12 0;
#X connect 2 0 5 0;
#X connect 3 0 6 0;
#X connect 3 0 9 0;
#X connect 3 0 14 0;
#X connect 3 0 15 0;
#X connect 3 1 6 0;
#X connect 3 1 9 0;
#X connect 3 1 13 0;
#X connect 3 1 16 0;
#X connect 3 2 7 0;
#X connect 3 2 8 0;
#X connect 3 2 13 0;
#X connect 3 2 15 0;
#X connect 4 0 17 0;
#X connect 5 0 17 0;
#X connect 6 0 5 1;
#X connect 7 0 5 1;
#X connect 8 0 4 1;
#X connect 9 0 4 1;
#X connect 10 0 11 0;
#X connect 11 0 0 0;
#X connect 12 0 0 0;
#X connect 13 0 12 1;
#X connect 14 0 12 1;
#X connect 15 0 11 1;
#X connect 16 0 11 1;
#X connect 18 0 0 1;
#X connect 20 0 3 0;
#X connect 20 0 2 0;
#X restore 550 125 pd source selection guts;
#N canvas 714 511 450 300 source 0;
#X obj 184 114 expr $i1 >> $i2 & 1 \;;
#X obj 132 6 r counter;
#X obj 58 161 pipe;
#X obj 70 7 sel 2 3;
#X obj 131 184 spigot;
#X obj 58 182 spigot;
#X msg 91 162 0;
#X msg 119 162 1;
#X msg 164 161 0;
#X msg 192 161 1;
#X obj 205 18 r LFSR;
#X obj 205 73 spigot;
#X obj 132 72 spigot;
#X msg 165 52 0;
#X msg 193 52 1;
#X msg 238 51 0;
#X msg 266 51 1;
#X obj 68 208 outlet;
#X obj 309 13 inlet;
#X text 318 33 address of counter/register;
#X obj 58 -18 inlet;
#X text 60 -36 selector input;
#X connect 0 0 4 0;
#X connect 1 0 12 0;
#X connect 2 0 5 0;
#X connect 3 0 6 0;
#X connect 3 0 9 0;
#X connect 3 0 14 0;
#X connect 3 0 15 0;
#X connect 3 1 6 0;
#X connect 3 1 9 0;
#X connect 3 1 13 0;
#X connect 3 1 16 0;
#X connect 3 2 7 0;
#X connect 3 2 8 0;
#X connect 3 2 13 0;
#X connect 3 2 15 0;
#X connect 4 0 17 0;
#X connect 5 0 17 0;
#X connect 6 0 5 1;
#X connect 7 0 5 1;
#X connect 8 0 4 1;
#X connect 9 0 4 1;
#X connect 10 0 11 0;
#X connect 11 0 0 0;
#X connect 12 0 0 0;
#X connect 13 0 12 1;
#X connect 14 0 12 1;
#X connect 15 0 11 1;
#X connect 16 0 11 1;
#X connect 18 0 0 1;
#X connect 20 0 3 0;
#X connect 20 0 2 0;
#X restore 783 116 pd source selection guts;
#N canvas 714 511 450 300 source 0;
#X obj 184 114 expr $i1 >> $i2 & 1 \;;
#X obj 132 6 r counter;
#X obj 58 161 pipe;
#X obj 70 7 sel 2 3;
#X obj 131 184 spigot;
#X obj 58 182 spigot;
#X msg 91 162 0;
#X msg 119 162 1;
#X msg 164 161 0;
#X msg 192 161 1;
#X obj 205 18 r LFSR;
#X obj 205 73 spigot;
#X obj 132 72 spigot;
#X msg 165 52 0;
#X msg 193 52 1;
#X msg 238 51 0;
#X msg 266 51 1;
#X obj 68 208 outlet;
#X obj 309 13 inlet;
#X text 318 33 address of counter/register;
#X obj 58 -18 inlet;
#X text 60 -36 selector input;
#X connect 0 0 4 0;
#X connect 1 0 12 0;
#X connect 2 0 5 0;
#X connect 3 0 6 0;
#X connect 3 0 9 0;
#X connect 3 0 14 0;
#X connect 3 0 15 0;
#X connect 3 1 6 0;
#X connect 3 1 9 0;
#X connect 3 1 13 0;
#X connect 3 1 16 0;
#X connect 3 2 7 0;
#X connect 3 2 8 0;
#X connect 3 2 13 0;
#X connect 3 2 15 0;
#X connect 4 0 17 0;
#X connect 5 0 17 0;
#X connect 6 0 5 1;
#X connect 7 0 5 1;
#X connect 8 0 4 1;
#X connect 9 0 4 1;
#X connect 10 0 11 0;
#X connect 11 0 0 0;
#X connect 12 0 0 0;
#X connect 13 0 12 1;
#X connect 14 0 12 1;
#X connect 15 0 11 1;
#X connect 16 0 11 1;
#X connect 18 0 0 1;
#X connect 20 0 3 0;
#X connect 20 0 2 0;
#X restore 1063 127 pd source selection guts;
#X connect 5 0 15 0;
#X connect 6 0 15 1;
#X connect 7 0 16 0;
#X connect 8 0 16 1;
#X connect 9 0 17 0;
#X connect 10 0 17 1;
#X connect 11 0 18 0;
#X connect 12 0 18 1;
#X connect 13 0 19 0;
#X connect 14 0 19 1;
#X connect 15 0 0 0;
#X connect 16 0 1 0;
#X connect 17 0 2 0;
#X connect 18 0 3 0;
#X connect 19 0 4 0;
#X restore 23 22 pd matrix guts 1;
#X obj 23 108 s SET_S2T1;
#X connect 0 0 3 0;
#X connect 1 0 0 0;
#X connect 2 0 0 0;
#X connect 2 1 0 1;
#X connect 2 1 1 0;
#X connect 2 2 0 2;
#X connect 2 2 1 0;
#X connect 2 3 0 3;
#X connect 2 3 1 0;
#X connect 2 4 0 4;
#X connect 2 4 1 0;
#X restore -135 275 pd S2T1;
#N canvas 124 549 450 300 S2T2 0;
#X obj 13 73 expr ($i1 & 1) | ($i2 & 1) << 1 | ($i3 & 1) << 2 | ($i4
& 1) << 3 | ($i5 & 1) << 4 \;;
#X obj 44 50 t b;
#N canvas 505 583 1360 247 matrix 0;
#X obj 19 175 outlet;
#X obj 276 185 outlet;
#X obj 531 184 outlet;
#X obj 785 190 outlet;
#X obj 1041 207 outlet;
#X obj 19 20 r S2T2A_SRC;
#X obj 209 20 r S2T2A_C;
#X obj 276 20 r S2T2B_SRC;
#X obj 466 20 r S2T2B_C;
#X obj 531 20 r S2T2C_SRC;
#X obj 722 20 r S2T2C_C;
#X obj 785 22 r S2T2D_SRC;
#X obj 975 22 r S2T2D_C;
#X obj 1041 25 r S2T2E_SRC;
#X obj 1234 25 r S2T2E_C;
#N canvas 714 511 450 300 source 0;
#X obj 184 114 expr $i1 >> $i2 & 1 \;;
#X obj 132 6 r counter;
#X obj 58 161 pipe;
#X obj 70 7 sel 2 3;
#X obj 131 184 spigot;
#X obj 58 182 spigot;
#X msg 91 162 0;
#X msg 119 162 1;
#X msg 164 161 0;
#X msg 192 161 1;
#X obj 205 18 r LFSR;
#X obj 205 73 spigot;
#X obj 132 72 spigot;
#X msg 165 52 0;
#X msg 193 52 1;
#X msg 238 51 0;
#X msg 266 51 1;
#X obj 68 208 outlet;
#X obj 309 13 inlet;
#X text 318 33 address of counter/register;
#X obj 58 -18 inlet;
#X text 60 -36 selector input;
#X connect 0 0 4 0;
#X connect 1 0 12 0;
#X connect 2 0 5 0;
#X connect 3 0 6 0;
#X connect 3 0 9 0;
#X connect 3 0 14 0;
#X connect 3 0 15 0;
#X connect 3 1 6 0;
#X connect 3 1 9 0;
#X connect 3 1 13 0;
#X connect 3 1 16 0;
#X connect 3 2 7 0;
#X connect 3 2 8 0;
#X connect 3 2 13 0;
#X connect 3 2 15 0;
#X connect 4 0 17 0;
#X connect 5 0 17 0;
#X connect 6 0 5 1;
#X connect 7 0 5 1;
#X connect 8 0 4 1;
#X connect 9 0 4 1;
#X connect 10 0 11 0;
#X connect 11 0 0 0;
#X connect 12 0 0 0;
#X connect 13 0 12 1;
#X connect 14 0 12 1;
#X connect 15 0 11 1;
#X connect 16 0 11 1;
#X connect 18 0 0 1;
#X connect 20 0 3 0;
#X connect 20 0 2 0;
#X restore 63 97 pd source selection guts;
#N canvas 714 511 450 300 source 0;
#X obj 184 114 expr $i1 >> $i2 & 1 \;;
#X obj 132 6 r counter;
#X obj 58 161 pipe;
#X obj 70 7 sel 2 3;
#X obj 131 184 spigot;
#X obj 58 182 spigot;
#X msg 91 162 0;
#X msg 119 162 1;
#X msg 164 161 0;
#X msg 192 161 1;
#X obj 205 18 r LFSR;
#X obj 205 73 spigot;
#X obj 132 72 spigot;
#X msg 165 52 0;
#X msg 193 52 1;
#X msg 238 51 0;
#X msg 266 51 1;
#X obj 68 208 outlet;
#X obj 309 13 inlet;
#X text 318 33 address of counter/register;
#X obj 58 -18 inlet;
#X text 60 -36 selector input;
#X connect 0 0 4 0;
#X connect 1 0 12 0;
#X connect 2 0 5 0;
#X connect 3 0 6 0;
#X connect 3 0 9 0;
#X connect 3 0 14 0;
#X connect 3 0 15 0;
#X connect 3 1 6 0;
#X connect 3 1 9 0;
#X connect 3 1 13 0;
#X connect 3 1 16 0;
#X connect 3 2 7 0;
#X connect 3 2 8 0;
#X connect 3 2 13 0;
#X connect 3 2 15 0;
#X connect 4 0 17 0;
#X connect 5 0 17 0;
#X connect 6 0 5 1;
#X connect 7 0 5 1;
#X connect 8 0 4 1;
#X connect 9 0 4 1;
#X connect 10 0 11 0;
#X connect 11 0 0 0;
#X connect 12 0 0 0;
#X connect 13 0 12 1;
#X connect 14 0 12 1;
#X connect 15 0 11 1;
#X connect 16 0 11 1;
#X connect 18 0 0 1;
#X connect 20 0 3 0;
#X connect 20 0 2 0;
#X restore 305 115 pd source selection guts;
#N canvas 714 511 450 300 source 0;
#X obj 184 114 expr $i1 >> $i2 & 1 \;;
#X obj 132 6 r counter;
#X obj 58 161 pipe;
#X obj 70 7 sel 2 3;
#X obj 131 184 spigot;
#X obj 58 182 spigot;
#X msg 91 162 0;
#X msg 119 162 1;
#X msg 164 161 0;
#X msg 192 161 1;
#X obj 205 18 r LFSR;
#X obj 205 73 spigot;
#X obj 132 72 spigot;
#X msg 165 52 0;
#X msg 193 52 1;
#X msg 238 51 0;
#X msg 266 51 1;
#X obj 68 208 outlet;
#X obj 309 13 inlet;
#X text 318 33 address of counter/register;
#X obj 58 -18 inlet;
#X text 60 -36 selector input;
#X connect 0 0 4 0;
#X connect 1 0 12 0;
#X connect 2 0 5 0;
#X connect 3 0 6 0;
#X connect 3 0 9 0;
#X connect 3 0 14 0;
#X connect 3 0 15 0;
#X connect 3 1 6 0;
#X connect 3 1 9 0;
#X connect 3 1 13 0;
#X connect 3 1 16 0;
#X connect 3 2 7 0;
#X connect 3 2 8 0;
#X connect 3 2 13 0;
#X connect 3 2 15 0;
#X connect 4 0 17 0;
#X connect 5 0 17 0;
#X connect 6 0 5 1;
#X connect 7 0 5 1;
#X connect 8 0 4 1;
#X connect 9 0 4 1;
#X connect 10 0 11 0;
#X connect 11 0 0 0;
#X connect 12 0 0 0;
#X connect 13 0 12 1;
#X connect 14 0 12 1;
#X connect 15 0 11 1;
#X connect 16 0 11 1;
#X connect 18 0 0 1;
#X connect 20 0 3 0;
#X connect 20 0 2 0;
#X restore 558 99 pd source selection guts;
#N canvas 714 511 450 300 source 0;
#X obj 184 114 expr $i1 >> $i2 & 1 \;;
#X obj 132 6 r counter;
#X obj 58 161 pipe;
#X obj 70 7 sel 2 3;
#X obj 131 184 spigot;
#X obj 58 182 spigot;
#X msg 91 162 0;
#X msg 119 162 1;
#X msg 164 161 0;
#X msg 192 161 1;
#X obj 205 18 r LFSR;
#X obj 205 73 spigot;
#X obj 132 72 spigot;
#X msg 165 52 0;
#X msg 193 52 1;
#X msg 238 51 0;
#X msg 266 51 1;
#X obj 68 208 outlet;
#X obj 309 13 inlet;
#X text 318 33 address of counter/register;
#X obj 58 -18 inlet;
#X text 60 -36 selector input;
#X connect 0 0 4 0;
#X connect 1 0 12 0;
#X connect 2 0 5 0;
#X connect 3 0 6 0;
#X connect 3 0 9 0;
#X connect 3 0 14 0;
#X connect 3 0 15 0;
#X connect 3 1 6 0;
#X connect 3 1 9 0;
#X connect 3 1 13 0;
#X connect 3 1 16 0;
#X connect 3 2 7 0;
#X connect 3 2 8 0;
#X connect 3 2 13 0;
#X connect 3 2 15 0;
#X connect 4 0 17 0;
#X connect 5 0 17 0;
#X connect 6 0 5 1;
#X connect 7 0 5 1;
#X connect 8 0 4 1;
#X connect 9 0 4 1;
#X connect 10 0 11 0;
#X connect 11 0 0 0;
#X connect 12 0 0 0;
#X connect 13 0 12 1;
#X connect 14 0 12 1;
#X connect 15 0 11 1;
#X connect 16 0 11 1;
#X connect 18 0 0 1;
#X connect 20 0 3 0;
#X connect 20 0 2 0;
#X restore 808 95 pd source selection guts;
#N canvas 714 511 450 300 source 0;
#X obj 184 114 expr $i1 >> $i2 & 1 \;;
#X obj 132 6 r counter;
#X obj 58 161 pipe;
#X obj 70 7 sel 2 3;
#X obj 131 184 spigot;
#X obj 58 182 spigot;
#X msg 91 162 0;
#X msg 119 162 1;
#X msg 164 161 0;
#X msg 192 161 1;
#X obj 205 18 r LFSR;
#X obj 205 73 spigot;
#X obj 132 72 spigot;
#X msg 165 52 0;
#X msg 193 52 1;
#X msg 238 51 0;
#X msg 266 51 1;
#X obj 68 208 outlet;
#X obj 309 13 inlet;
#X text 318 33 address of counter/register;
#X obj 58 -18 inlet;
#X text 60 -36 selector input;
#X connect 0 0 4 0;
#X connect 1 0 12 0;
#X connect 2 0 5 0;
#X connect 3 0 6 0;
#X connect 3 0 9 0;
#X connect 3 0 14 0;
#X connect 3 0 15 0;
#X connect 3 1 6 0;
#X connect 3 1 9 0;
#X connect 3 1 13 0;
#X connect 3 1 16 0;
#X connect 3 2 7 0;
#X connect 3 2 8 0;
#X connect 3 2 13 0;
#X connect 3 2 15 0;
#X connect 4 0 17 0;
#X connect 5 0 17 0;
#X connect 6 0 5 1;
#X connect 7 0 5 1;
#X connect 8 0 4 1;
#X connect 9 0 4 1;
#X connect 10 0 11 0;
#X connect 11 0 0 0;
#X connect 12 0 0 0;
#X connect 13 0 12 1;
#X connect 14 0 12 1;
#X connect 15 0 11 1;
#X connect 16 0 11 1;
#X connect 18 0 0 1;
#X connect 20 0 3 0;
#X connect 20 0 2 0;
#X restore 1069 105 pd source selection guts;
#X connect 5 0 15 0;
#X connect 6 0 15 1;
#X connect 7 0 16 0;
#X connect 8 0 16 1;
#X connect 9 0 17 0;
#X connect 10 0 17 1;
#X connect 11 0 18 0;
#X connect 12 0 18 1;
#X connect 13 0 19 0;
#X connect 14 0 19 1;
#X connect 15 0 0 0;
#X connect 16 0 1 0;
#X connect 17 0 2 0;
#X connect 18 0 3 0;
#X connect 19 0 4 0;
#X restore 13 22 pd matrix guts 1;
#X obj 13 108 s SET_S2T2;
#X connect 0 0 3 0;
#X connect 1 0 0 0;
#X connect 2 0 0 0;
#X connect 2 1 0 1;
#X connect 2 1 1 0;
#X connect 2 2 0 2;
#X connect 2 2 1 0;
#X connect 2 3 0 3;
#X connect 2 3 1 0;
#X connect 2 4 0 4;
#X connect 2 4 1 0;
#X restore -135 294 pd S2T2;
#X obj -76 597 r MASTER_CLOCK;
#N canvas 649 496 685 173 display 0;
#X obj 103 -9 expr $i1 >> 0 & 1 \; $i1 >> 1 & 1 \; $i1 >> 2 & 1 \;
$i1 >> 3 & 1 \; $i1 >> 4 & 1 \; $i1 >> 5 & 1 \; $i1 >> 6 & 1 \; $i1
>> 7 & 1 \;;
#X obj 239 -9 expr $i1 >> 8 & 1 \; $i1 >> 9 & 1 \; $i1 >> 10 & 1 \;
$i1 >> 11 & 1 \; $i1 >> 12 & 1 \; $i1 >> 13 & 1 \; $i1 >> 14 & 1 \;
$i1 >> 15 & 1 \;;
#X obj 103 103 tgl 15 0 empty empty empty 17 7 0 10 -262144 -1 -1 0
1;
#X obj 120 103 tgl 15 0 empty empty empty 17 7 0 10 -262144 -1 -1 0
1;
#X obj 137 103 tgl 15 0 empty empty empty 17 7 0 10 -262144 -1 -1 0
1;
#X obj 154 103 tgl 15 0 empty empty empty 17 7 0 10 -262144 -1 -1 0
1;
#X obj 171 103 tgl 15 0 empty empty empty 17 7 0 10 -262144 -1 -1 0
1;
#X obj 188 103 tgl 15 0 empty empty empty 17 7 0 10 -262144 -1 -1 0
1;
#X obj 205 103 tgl 15 0 empty empty empty 17 7 0 10 -262144 -1 -1 0
1;
#X obj 222 103 tgl 15 0 empty empty empty 17 7 0 10 -262144 -1 -1 0
1;
#X obj 239 103 tgl 15 0 empty empty empty 17 7 0 10 -262144 -1 -1 0
1;
#X obj 256 103 tgl 15 0 empty empty empty 17 7 0 10 -262144 -1 -1 0
1;
#X obj 273 103 tgl 15 0 empty empty empty 17 7 0 10 -262144 -1 -1 0
1;
#X obj 290 103 tgl 15 0 empty empty empty 17 7 0 10 -262144 -1 -1 0
1;
#X obj 307 103 tgl 15 0 empty empty empty 17 7 0 10 -262144 -1 -1 0
1;
#X obj 324 103 tgl 15 0 empty empty empty 17 7 0 10 -262144 -1 -1 0
1;
#X obj 341 103 tgl 15 0 empty empty empty 17 7 0 10 -262144 -1 -1 0
1;
#X obj 358 103 tgl 15 0 empty empty empty 17 7 0 10 -262144 -1 -1 0
1;
#X obj 103 -35 r LFSR;
#X connect 0 0 2 0;
#X connect 0 1 3 0;
#X connect 0 2 4 0;
#X connect 0 3 5 0;
#X connect 0 4 6 0;
#X connect 0 5 7 0;
#X connect 0 6 8 0;
#X connect 0 7 9 0;
#X connect 1 0 10 0;
#X connect 1 1 11 0;
#X connect 1 2 12 0;
#X connect 1 3 13 0;
#X connect 1 4 14 0;
#X connect 1 5 15 0;
#X connect 1 6 16 0;
#X connect 1 7 17 0;
#X connect 18 0 0 0;
#X connect 18 0 1 0;
#X coords 0 -1 1 1 275 20 1 100 100;
#X restore 411 545 pd display 32 bit;
#X obj 446 485 hradio 15 1 0 16 LFSR_T1 SET_LFSR_T1 LFSR_T1 -45 8 0
10 -262144 -1 -1 0;
#X obj 446 503 hradio 15 1 0 16 LFSR_T2 SET_LFSR_T2 LFSR_T2 -45 8 0
10 -262144 -1 -1 5;
#X obj 376 485 tgl 15 0 LFSR_T1_EN SET_LFSR_T1_EN EN 2 7 0 10 -262144
-1 -1 0 1;
#X obj 376 503 tgl 15 0 LFSR_T2_EN SET_LFSR_T2_EN EN 2 7 0 10 -262144
-1 -1 0 1;
#X obj 446 467 hradio 15 1 0 16 LFSR_CLK SET_LFSR_CLK LFSR_CLK -50
8 0 10 -262144 -1 -1 0;
#X obj 376 467 tgl 15 0 LFSR_CLK_EN SET_LFSR_CLK_EN EN 2 7 0 10 -262144
-1 -1 0 1;
#X obj 446 521 hradio 15 1 0 16 LFSR_MOD SET_LFSR_MOD LFSR_MOD -50
8 0 10 -262144 -1 -1 0;
#X obj 376 521 tgl 15 0 LFSR_MOD_EN SET_LFSR_MOD_EN EN 2 7 0 10 -262144
-1 -1 0 1;
#N canvas 749 160 390 298 LFSR 0;
#X obj 30 84 t b;
#N canvas 932 291 520 337 shiftRegister 0;
#X obj 64 135 f;
#X obj 64 190 expr $f1 \; ($f1 << 1 | ((($f1 >> $f2 & 1)&($f3 & 1))
^ (($f1 >> $f4 & 1)&($f5 & 1)) ^ ($f6 & 1)) ) & 0xFFFF;
#X obj 150 238 expr if($f1 == 0 \, 1 \, if($f1 == 0xFFFF \, 0 \, $f2))
\;;
#X obj 409 156 int;
#X obj 409 92 inlet;
#X obj 339 126 inlet;
#X obj 409 113 min 1;
#X obj 409 135 max 0;
#X obj 339 147 min 1;
#X obj 339 168 max 0;
#X obj 271 170 max 0;
#X obj 271 149 min 15;
#X obj 271 128 inlet;
#X obj 203 122 inlet;
#X obj 203 143 min 1;
#X obj 203 164 max 0;
#X obj 132 169 max 0;
#X obj 132 148 min 15;
#X obj 132 128 inlet;
#X obj 64 95 inlet;
#X obj 64 114 route set;
#X obj 64 268 outlet;
#X text 25 22 bang advances float sets immediately set message sets
on next bang;
#X text 127 86 tap1 0-15;
#X text 261 109 tap2 0-15;
#X text 186 101 tap1 enable;
#X text 324 104 tap2 enable;
#X text 407 72 mod;
#X text 149 259 this expression just makes sure the LFSR doesn't freeze
up;
#X connect 0 0 1 0;
#X connect 1 0 21 0;
#X connect 1 1 0 1;
#X connect 1 1 2 0;
#X connect 2 0 3 0;
#X connect 3 0 1 5;
#X connect 3 0 2 1;
#X connect 4 0 6 0;
#X connect 5 0 8 0;
#X connect 6 0 7 0;
#X connect 7 0 3 0;
#X connect 8 0 9 0;
#X connect 9 0 1 4;
#X connect 10 0 1 3;
#X connect 11 0 10 0;
#X connect 12 0 11 0;
#X connect 13 0 14 0;
#X connect 14 0 15 0;
#X connect 15 0 1 2;
#X connect 16 0 1 1;
#X connect 17 0 16 0;
#X connect 18 0 17 0;
#X connect 19 0 20 0;
#X connect 20 0 0 1;
#X connect 20 1 0 0;
#X restore 29 221 pd shiftRegister;
#X obj 29 240 s LFSR;
#X obj 47 103 r LFSR_T1;
#X obj 84 143 r LFSR_T2;
#X obj 66 123 r LFSR_T1_EN;
#X obj 103 163 r LFSR_T2_EN;
#N canvas 661 188 529 391 LFSR 0;
#X obj 184 114 expr $i1 >> $i2 & 1 \;;
#X obj 185 80 r counter;
#X obj 58 146 pipe;
#X obj 131 169 spigot;
#X obj 58 167 spigot;
#X msg 91 147 0;
#X msg 119 147 1;
#X msg 164 146 0;
#X msg 192 146 1;
#X obj 309 13 inlet;
#X text 318 33 address of counter/register;
#X obj 58 -18 inlet;
#X text 60 -36 selector input;
#X obj 70 7 sel 1;
#X obj 58 298 spigot;
#X obj 244 217 t b;
#X obj 244 240 f;
#X obj 91 264 expr if($f1 != $f2 \, 1 \, 0) \; $f1 \;;
#X obj 58 319 outlet;
#X connect 0 0 3 0;
#X connect 1 0 0 0;
#X connect 2 0 4 0;
#X connect 3 0 15 0;
#X connect 3 0 17 0;
#X connect 3 0 14 0;
#X connect 4 0 15 0;
#X connect 4 0 17 0;
#X connect 4 0 14 0;
#X connect 5 0 4 1;
#X connect 6 0 4 1;
#X connect 7 0 3 1;
#X connect 8 0 3 1;
#X connect 9 0 0 1;
#X connect 11 0 2 0;
#X connect 11 0 13 0;
#X connect 13 0 8 0;
#X connect 13 0 5 0;
#X connect 13 1 7 0;
#X connect 13 1 6 0;
#X connect 14 0 18 0;
#X connect 15 0 16 0;
#X connect 16 0 17 1;
#X connect 17 0 14 1;
#X connect 17 1 16 1;
#X restore 30 65 pd LFSR source selection guts;
#X obj 201 46 r LFSR_CLK;
#X obj 30 46 r LFSR_CLK_EN;
#N canvas 661 188 529 391 LFSR 0;
#X obj 184 114 expr $i1 >> $i2 & 1 \;;
#X obj 185 80 r counter;
#X obj 58 146 pipe;
#X obj 131 169 spigot;
#X obj 58 167 spigot;
#X msg 91 147 0;
#X msg 119 147 1;
#X msg 164 146 0;
#X msg 192 146 1;
#X obj 309 13 inlet;
#X text 318 33 address of counter/register;
#X obj 58 -18 inlet;
#X text 60 -36 selector input;
#X obj 70 7 sel 1;
#X obj 58 298 spigot;
#X obj 244 217 t b;
#X obj 244 240 f;
#X obj 91 264 expr if($f1 != $f2 \, 1 \, 0) \; $f1 \;;
#X obj 58 319 outlet;
#X connect 0 0 3 0;
#X connect 1 0 0 0;
#X connect 2 0 4 0;
#X connect 3 0 15 0;
#X connect 3 0 17 0;
#X connect 3 0 14 0;
#X connect 4 0 15 0;
#X connect 4 0 17 0;
#X connect 4 0 14 0;
#X connect 5 0 4 1;
#X connect 6 0 4 1;
#X connect 7 0 3 1;
#X connect 8 0 3 1;
#X connect 9 0 0 1;
#X connect 11 0 2 0;
#X connect 11 0 13 0;
#X connect 13 0 8 0;
#X connect 13 0 5 0;
#X connect 13 1 7 0;
#X connect 13 1 6 0;
#X connect 14 0 18 0;
#X connect 15 0 16 0;
#X connect 16 0 17 1;
#X connect 17 0 14 1;
#X connect 17 1 16 1;
#X restore 122 202 pd LFSR source selection guts;
#X obj 122 183 r LFSR_MOD_EN;
#X obj 293 183 r LFSR_MOD;
#X connect 0 0 1 0;
#X connect 1 0 2 0;
#X connect 3 0 1 1;
#X connect 4 0 1 3;
#X connect 5 0 1 2;
#X connect 6 0 1 4;
#X connect 7 0 0 0;
#X connect 8 0 7 1;
#X connect 9 0 7 0;
#X connect 10 0 1 5;
#X connect 11 0 10 0;
#X connect 12 0 10 1;
#X restore 461 608 pd LFSR guts;
#X text 374 446 LFSR;
#X text 378 300 DIVIDE BY N 2;
#X text 379 14 DIVIDE BY N 1;
#X text 2 11 Shift Register 1;
#X text 1 298 Shift Register 2;
#X text 5 76 Tap 1;
#X text 3 207 Tap 2;
#X text 3 368 Tap 1;
#X text 2 496 Tap 2;
#X obj 445 411 hradio 15 1 0 16 C2Q empty C2Q -20 8 0 10 -262144 -1
-1 1;
#X obj 445 124 hradio 15 1 0 16 C1Q empty C1Q -20 8 0 10 -262144 -1
-1 1;
#X obj 773 227 pack f f;
#X obj 773 248 s to_serial;
#X obj 773 194 expr 12 \; $i1 \;;
#X obj 773 169 r C1Q;
#X obj 847 228 pack f f;
#X obj 847 249 s to_serial;
#X obj 847 170 r C2Q;
#X obj 847 195 expr 13 \; $i1 \;;
#X connect 2 0 3 0;
#X connect 82 0 2 0;
#X connect 104 0 105 0;
#X connect 106 0 104 0;
#X connect 106 1 104 1;
#X connect 107 0 106 0;
#X connect 108 0 109 0;
#X connect 110 0 111 0;
#X connect 111 0 108 0;
#X connect 111 1 108 1;
#X coords 0 -1 1 1 700 580 1 0 0;
#X restore -17 -86 pd matrix;
#X coords 0 0 1 1 85 60 0;
