#N canvas 0 0 1350 709 10;
#X obj 134 114 hsl 240 15 15 250 0 0 MASTER_CLOCK_TEMPO SET_MASTER_CLOCK_TEMPO
MASTER_CLOCK_BPM 2 8 0 10 -262144 -1 -1 10679 1;
#X floatatom 377 113 5 0 0 0 - - -;
#X floatatom 359 180 5 0 0 0 - - -;
#X msg 142 64 120;
#X obj 252 69 loadbang;
#X msg 421 117 set \$1;
#X obj 412 177 s MASTER_TEMPO;
#X obj 583 264 r MASTER_TEMPO;
#X obj 568 287 f;
#X obj 335 325 metro 1000;
#X obj 568 318 /;
#X floatatom 582 452 5 0 0 0 - - -;
#X obj 113 114 tgl 15 0 empty empty empty 17 7 0 10 -262144 -1 -1 1
1;
#X floatatom 624 177 5 0 0 0 - - -;
#X obj 624 196 t b;
#X obj 706 159 hradio 15 1 0 8 empty empty empty 0 -8 0 10 -262144
-1 -1 1;
#X obj 707 197 sel 0;
#X msg 707 219 0;
#X msg 734 219 1;
#X obj 228 251 spigot;
#X obj 228 213 r MASTER_SYNCH;
#X obj 113 155 metro 1000;
#X obj 170 134 r MASTER_TEMPO;
#X obj 113 178 s MASTER_SYNCH;
#X obj 359 153 expr (60/$f1)*1000;
#X obj 335 406 counter;
#X floatatom 335 432 5 0 0 0 - - -;
#X msg 624 157 set \$1;
#X msg 354 360 0;
#X obj 481 433 bng 15 50 10 0 empty empty empty 17 7 0 10 -262144 -1
-1;
#X obj 707 178 + 1;
#X obj 434 237 tgl 15 0 \$0-RUN \$0-SET_RUN GO 1 8 0 10 -262144 -1
-1 1 1;
#X obj 414 237 tgl 15 0 \$0-SYNCH \$0-SET_SYNCH EX 1 8 0 10 -262144
-1 -1 0 1;
#X obj 348 260 r \$0-RUN;
#X text 655 1 list of GUI rcv symbols: \$0-SET_RUN - maps to toggle
GO \$0-SET_SYNCH - maps to toggle EX;
#X obj 261 232 r \$0-SYNCH;
#X msg 407 356 0;
#X msg 435 356 15;
#X obj 407 334 loadbang;
#X obj 403 520 hradio 15 1 0 16 empty empty empty 0 -8 0 10 -262144
-1 -1 5;
#X obj 568 367 *;
#X obj 228 313 del;
#X msg 228 337 1;
#X msg 228 286 0;
#X obj 315 287 spigot;
#X obj 707 250 s \$0-SET_RUN;
#X msg 1068 171 1 3;
#X msg 1120 171 2 3;
#X msg 1124 210 2 5;
#X msg 1176 210 3 5;
#X msg 1222 209 4 5;
#X msg 1087 205 1 5;
#X msg 1138 310 1 8;
#X msg 1163 337 3 8;
#X msg 1195 361 5 8;
#X msg 867 213 1 2;
#X msg 910 213 1 4;
#X msg 1028 480 3 4;
#X msg 1060 480 1 7;
#X msg 1089 480 2 7;
#X msg 1201 458 3 7;
#X msg 1248 474 4 7;
#X msg 1301 474 8 7;
#X obj 798 525 /;
#X obj 798 501 *;
#X obj 867 245 unpack f f;
#X obj 797 366 t b;
#X obj 679 339 r MASTER_TEMPO;
#X floatatom 768 580 8 0 0 0 - - -;
#X floatatom 651 410 5 0 0 0 - - -;
#X connect 0 0 1 0;
#X connect 1 0 5 0;
#X connect 1 0 24 0;
#X connect 3 0 0 0;
#X connect 4 0 3 0;
#X connect 5 0 0 0;
#X connect 7 0 8 1;
#X connect 8 0 10 0;
#X connect 9 0 8 0;
#X connect 9 0 25 0;
#X connect 9 0 29 0;
#X connect 10 0 40 0;
#X connect 12 0 21 0;
#X connect 13 0 14 0;
#X connect 13 0 15 0;
#X connect 14 0 10 0;
#X connect 15 0 27 0;
#X connect 15 0 30 0;
#X connect 16 0 17 0;
#X connect 16 1 18 0;
#X connect 16 1 10 1;
#X connect 17 0 45 0;
#X connect 19 0 41 0;
#X connect 19 0 43 0;
#X connect 20 0 19 0;
#X connect 21 0 23 0;
#X connect 22 0 21 1;
#X connect 24 0 2 0;
#X connect 24 0 6 0;
#X connect 25 0 26 0;
#X connect 25 0 39 0;
#X connect 27 0 13 0;
#X connect 28 0 25 2;
#X connect 30 0 16 0;
#X connect 33 0 44 1;
#X connect 33 0 9 0;
#X connect 35 0 19 1;
#X connect 36 0 25 3;
#X connect 37 0 25 4;
#X connect 38 0 36 0;
#X connect 38 0 37 0;
#X connect 41 0 42 0;
#X connect 42 0 44 0;
#X connect 43 0 44 0;
#X connect 44 0 9 0;
#X connect 46 0 65 0;
#X connect 47 0 65 0;
#X connect 48 0 65 0;
#X connect 49 0 65 0;
#X connect 50 0 65 0;
#X connect 51 0 65 0;
#X connect 52 0 65 0;
#X connect 53 0 65 0;
#X connect 54 0 65 0;
#X connect 55 0 65 0;
#X connect 56 0 65 0;
#X connect 57 0 65 0;
#X connect 58 0 65 0;
#X connect 59 0 65 0;
#X connect 60 0 65 0;
#X connect 61 0 65 0;
#X connect 62 0 65 0;
#X connect 63 0 68 0;
#X connect 63 0 9 1;
#X connect 64 0 63 0;
#X connect 65 0 64 1;
#X connect 65 0 66 0;
#X connect 65 1 63 1;
#X connect 66 0 64 0;
#X connect 67 0 64 0;
#X connect 67 0 69 0;
