#N canvas 368 30 1357 705 10;
#N canvas 283 412 903 324 serial_port 0;
#X msg 190 178 close;
#X obj 190 156 loadbang;
#X obj 190 222 print Arduino_Says:;
#X obj 245 132 r to_serial;
#X obj 103 103 tgl 14 0 empty empty open_serial_port 17 6 0 10 -262144
-1 -1 1 1;
#X msg 142 222 set 1;
#X msg 103 222 set 0;
#X obj 142 141 sel 1 0;
#X text 284 199 creation arguments: <port#> <BAUD>;
#X text 312 221 if you gave the arduino something to say it appears
in the console;
#X text 304 178 send things to the serial port via "to_serial" send
symbol;
#X obj 245 156 spigot;
#X obj 190 200 comport 2 9600;
#X msg 142 178 open 2;
#X connect 0 0 6 0;
#X connect 0 0 12 0;
#X connect 1 0 0 0;
#X connect 3 0 11 0;
#X connect 4 0 7 0;
#X connect 4 0 11 1;
#X connect 5 0 4 0;
#X connect 6 0 4 0;
#X connect 7 0 13 0;
#X connect 7 1 0 0;
#X connect 11 0 12 0;
#X connect 12 0 2 0;
#X connect 13 0 5 0;
#X connect 13 0 12 0;
#X coords 0 -1 1 1 120 22 2 100 100;
#X restore -17 -144 pd serial_port;
#N canvas 0 22 1366 725 master_clock 0;
#X obj 125 104 hsl 240 15 15 250 0 0 MASTER_CLOCK_TEMPO SET_MASTER_CLOCK_TEMPO
MASTER_CLOCK_BPM 2 8 0 10 -262144 -1 -1 10749 1;
#X floatatom 368 103 5 0 0 0 - - -;
#X floatatom 341 176 5 0 0 0 - - -;
#X msg 133 54 120;
#X obj 243 59 loadbang;
#X msg 367 125 set \$1;
#X obj 104 104 tgl 15 0 empty empty empty 17 7 0 10 -262144 -1 -1 1
1;
#X obj 104 145 metro 1000;
#X obj 161 124 r MASTER_TEMPO;
#X obj 789 515 /;
#X obj 789 491 *;
#X obj 789 448 t b;
#X floatatom 739 580 8 0 0 0 - - -;
#X obj 414 104 hradio 15 1 0 8 DIV SET_DIV * -10 8 0 10 -262144 -1
-1 4;
#X obj 552 104 hradio 15 1 0 8 MULT SET_MULT / -10 8 0 10 -262144 -1
-1 1;
#X obj 789 544 s MASTER_TEMPO;
#X obj 394 173 s BASE_TEMPO;
#X obj 680 306 r BASE_TEMPO;
#X obj 817 383 r DIV;
#X obj 804 340 r MULT;
#X obj 804 360 + 1;
#X obj 817 402 + 1;
#X obj 104 168 s MASTER_CLOCK;
#X obj 341 149 expr (60/$f1)*250;
#X connect 0 0 1 0;
#X connect 1 0 5 0;
#X connect 1 0 23 0;
#X connect 3 0 0 0;
#X connect 4 0 3 0;
#X connect 5 0 0 0;
#X connect 6 0 7 0;
#X connect 7 0 22 0;
#X connect 8 0 7 1;
#X connect 9 0 12 0;
#X connect 9 0 15 0;
#X connect 10 0 9 0;
#X connect 11 0 10 0;
#X connect 17 0 10 0;
#X connect 18 0 21 0;
#X connect 19 0 20 0;
#X connect 20 0 10 1;
#X connect 20 0 11 0;
#X connect 21 0 9 1;
#X connect 21 0 11 0;
#X connect 23 0 2 0;
#X connect 23 0 16 0;
#X coords 0 -1 1 1 575 22 2 100 100;
#X restore -17 -122 pd master_clock;
#N canvas 394 343 450 300 random_note 0;
#X obj 138 138 r NOTE;
#X obj 120 104 hradio 15 1 0 8 RAND_DIV SET_RAND_DIV RAND_DIV 123 8
0 10 -262144 -1 -1 0;
#X obj 183 244 i;
#X obj 210 244 + 1;
#X msg 217 263 0;
#X obj 183 282 sel 1;
#X obj 183 263 >= 0;
#X obj 183 204 spigot;
#X obj 183 185 r MASTER_CLOCK;
#X obj 204 223 r RAND_DIV;
#X obj 102 104 tgl 15 0 RAND_EN SET_RAND_EN EN 2 7 0 10 -262144 -1
-1 0 1;
#X obj 99 185 s SET_RAND_EN;
#X obj 216 152 r RAND_EN;
#X obj 138 158 sel 1;
#X obj 183 322 s SET_NOTE_NUMBER;
#X obj 183 302 random 60;
#X connect 0 0 13 0;
#X connect 2 0 3 0;
#X connect 2 0 6 0;
#X connect 3 0 2 1;
#X connect 4 0 2 1;
#X connect 5 0 4 0;
#X connect 5 0 15 0;
#X connect 6 0 5 0;
#X connect 7 0 2 0;
#X connect 8 0 7 0;
#X connect 9 0 6 1;
#X connect 12 0 7 1;
#X connect 13 1 7 1;
#X connect 13 1 11 0;
#X connect 15 0 14 0;
#X coords 0 -1 1 1 195 22 2 100 100;
#X restore 558 -122 pd random_note;
#N canvas 111 137 1127 434 display_controls 0;
#X obj 301 104 hsl 256 15 0 255 0 0 DISPLAY_REFRESH_FREQ SET_DISPLAY_REFRESH_FREQ
Display_Refresh_Frequency -2 7 0 10 -262144 -1 -1 10600 0;
#X msg 190 259 16;
#X msg 218 259 32;
#X msg 247 259 64;
#X obj 103 294 s SET_DISPLAY_REFRESH_FREQ;
#X msg 305 259 255;
#X msg 277 259 128;
#X msg 132 259 1;
#X obj 103 104 hradio 15 1 0 8 DISPLAY_PRESET_RADIO SET_DISPLAY_PRESET_RADIO
empty 0 -8 0 10 -262144 -1 -1 2;
#X obj 103 211 r DISPLAY_PRESET_RADIO;
#X msg 103 259 0;
#X obj 103 231 sel 0 1 2 3 4 5 6 7;
#X msg 103 177 \; DISPLAY_PRESET_RADIO 0;
#X obj 103 155 loadbang;
#X obj 347 244 f;
#X obj 347 284 s SET_DISPLAY_REFRESH_FREQ;
#X obj 347 264 + 1;
#X obj 372 264 - 1;
#X obj 262 104 bng 15 50 10 0 DISPLAY_REFRESH_FREQ_INC SET_DISPLAY_REFRESH_FREQ_INC
+ 4 8 0 10 -262144 -1 -1;
#X obj 372 244 f;
#X obj 280 104 bng 15 50 10 0 DISPLAY_REFRESH_FREQ_DEC SET_DISPLAY_REFRESH_FREQ_DEC
- 4 8 0 10 -262144 -1 -1;
#X obj 362 184 r DISPLAY_REFRESH_FREQ;
#X msg 161 259 8;
#X floatatom 227 103 5 0 0 0 - DISPLAY_REFRESH_FREQ -;
#X obj 347 204 r DISPLAY_REFRESH_FREQ_INC;
#X obj 372 224 r DISPLAY_REFRESH_FREQ_DEC;
#X obj 595 276 s to_serial;
#X obj 595 256 pack f f;
#X obj 595 221 expr 6 \; $i1 \;;
#X obj 595 197 r DISPLAY_REFRESH_FREQ;
#X obj 578 106 r SET_DISPLAY_INC_DEC;
#X obj 578 126 sel 0 1;
#X obj 597 146 s SET_DISPLAY_REFRESH_FREQ_INC;
#X obj 578 166 s SET_DISPLAY_REFRESH_FREQ_DEC;
#X connect 1 0 4 0;
#X connect 2 0 4 0;
#X connect 3 0 4 0;
#X connect 5 0 4 0;
#X connect 6 0 4 0;
#X connect 7 0 4 0;
#X connect 9 0 11 0;
#X connect 10 0 4 0;
#X connect 11 0 10 0;
#X connect 11 1 7 0;
#X connect 11 2 22 0;
#X connect 11 3 1 0;
#X connect 11 4 2 0;
#X connect 11 5 3 0;
#X connect 11 6 6 0;
#X connect 11 7 5 0;
#X connect 13 0 12 0;
#X connect 14 0 16 0;
#X connect 16 0 15 0;
#X connect 17 0 15 0;
#X connect 19 0 17 0;
#X connect 21 0 14 1;
#X connect 21 0 19 1;
#X connect 22 0 4 0;
#X connect 24 0 14 0;
#X connect 25 0 19 0;
#X connect 27 0 26 0;
#X connect 28 0 27 0;
#X connect 28 1 27 1;
#X connect 29 0 28 0;
#X connect 30 0 31 0;
#X connect 31 0 33 0;
#X connect 31 1 32 0;
#X coords 0 -1 1 1 462 22 2 100 100;
#X restore 753 -122 pd display_controls;
#N canvas 8 22 1283 681 MOD_CONTROLS 0;
#X obj 49 474 s to_serial;
#X obj 49 455 pack f f;
#X obj 52 404 t b;
#X obj 49 385 r MOD_1;
#X obj 108 385 r MOD_2;
#X obj 167 385 r MOD_3;
#X obj 226 385 r MOD_4;
#X obj 49 617 s to_serial;
#X obj 49 597 pack f f;
#X obj 49 551 expr 5 \; ($i1<<7)|($i2<<6)|($i3<<5)|($i4<<4)|($i5<<3)|($i6<<2)|($i7<<1)|$i8
\;;
#X obj 49 531 t b;
#X obj 406 514 r MOD_1_EN_L;
#X obj 355 494 r MOD_1_EN_R;
#X obj 49 494 r MOD_4_EN_R;
#X obj 100 514 r MOD_4_EN_L;
#X obj 151 494 r MOD_3_EN_R;
#X obj 202 514 r MOD_3_EN_L;
#X obj 253 494 r MOD_2_EN_R;
#X obj 304 514 r MOD_2_EN_L;
#X obj 49 423 expr 4 \; ($i4<<4)|($i3<<2)|($i2<<1)|$i1;
#X obj 532 364 metro;
#X obj 532 322 r LOCAL_CLOCK_1_EN;
#X obj 559 342 r LOCAL_CLOCK_1_RATE;
#X obj 532 385 s LOCAL_CLOCK_1;
#X obj 597 633 s SET_MOD_1;
#X obj 597 575 i;
#X obj 624 575 + 1;
#X msg 631 594 0;
#X obj 597 613 sel 1;
#X obj 597 594 >= 0;
#X obj 618 554 r MOD_1_DIV;
#X obj 769 576 i;
#X obj 796 576 + 1;
#X msg 803 595 0;
#X obj 769 614 sel 1;
#X obj 769 595 >= 0;
#X obj 769 634 s SET_MOD_2;
#X obj 790 554 r MOD_2_DIV;
#X obj 942 576 i;
#X obj 969 576 + 1;
#X msg 976 595 0;
#X obj 942 614 sel 1;
#X obj 942 595 >= 0;
#X obj 1110 580 i;
#X obj 1137 580 + 1;
#X msg 1144 599 0;
#X obj 1110 618 sel 1;
#X obj 1110 599 >= 0;
#X obj 963 552 r MOD_3_DIV;
#X obj 1131 552 r MOD_4_DIV;
#X obj 942 634 s SET_MOD_3;
#X obj 1110 638 s SET_MOD_4;
#X obj 597 516 r LOCAL_CLOCK_1;
#X obj 769 516 r LOCAL_CLOCK_2;
#X obj 1068 533 spigot;
#X obj 1110 533 spigot;
#X obj 598 408 r CLOCK_SEL_1;
#X obj 770 408 r CLOCK_SEL_2;
#X obj 943 407 r CLOCK_SEL_3;
#X obj 1111 406 r CLOCK_SEL_4;
#X obj 942 514 r LOCAL_CLOCK_3;
#X obj 1110 514 r LOCAL_CLOCK_4;
#X obj 1111 425 sel 0 1 2;
#X msg 1074 461 0;
#X msg 1101 461 1;
#X msg 1156 460 1;
#X msg 1186 460 0;
#X msg 1128 460 0;
#X obj 900 534 spigot;
#X obj 942 534 spigot;
#X obj 943 426 sel 0 1 2;
#X msg 906 462 0;
#X msg 933 462 1;
#X msg 988 461 1;
#X msg 1016 461 0;
#X msg 960 461 0;
#X obj 727 535 spigot;
#X obj 769 535 spigot;
#X obj 770 427 sel 0 1 2;
#X msg 733 463 0;
#X msg 760 463 1;
#X msg 815 462 1;
#X msg 844 462 0;
#X msg 787 462 0;
#X obj 555 536 spigot;
#X obj 597 536 spigot;
#X obj 598 428 sel 0 1 2;
#X msg 561 464 0;
#X msg 588 464 1;
#X msg 643 463 1;
#X msg 672 463 0;
#X msg 615 463 0;
#X msg 528 464 0;
#X obj 733 364 metro;
#X obj 917 360 metro;
#X obj 1095 356 metro;
#X msg 701 463 0;
#X obj 733 322 r LOCAL_CLOCK_2_EN;
#X obj 760 342 r LOCAL_CLOCK_2_RATE;
#X obj 733 385 s LOCAL_CLOCK_2;
#X obj 555 497 r MASTER_CLOCK;
#X obj 900 495 r MASTER_CLOCK;
#X obj 1068 495 r MASTER_CLOCK;
#X obj 917 318 r LOCAL_CLOCK_3_EN;
#X obj 944 338 r LOCAL_CLOCK_3_RATE;
#X obj 917 381 s LOCAL_CLOCK_3;
#X obj 1095 314 r LOCAL_CLOCK_4_EN;
#X obj 1122 334 r LOCAL_CLOCK_4_RATE;
#X obj 1095 377 s LOCAL_CLOCK_4;
#X msg 877 462 0;
#X msg 1045 461 0;
#X obj 727 497 r MASTER_CLOCK;
#X obj 329 398 s SET_LOCAL_CLOCK_4_EN;
#X obj 329 378 s SET_LOCAL_CLOCK_3_EN;
#X obj 329 358 s SET_LOCAL_CLOCK_2_EN;
#X obj 329 338 s SET_LOCAL_CLOCK_1_EN;
#X obj 297 313 r MASTER_LOCAL_CLOCK_EN;
#X msg 51 305 \; SET_LOCAL_CLOCK_1_RATE 125 \; SET_LOCAL_CLOCK_2_RATE
125 \; SET_LOCAL_CLOCK_3_RATE 125 \; SET_LOCAL_CLOCK_4_RATE 125;
#X obj 51 282 loadbang;
#X obj 105 282 r LOCAL_CLOCK_RESET;
#X obj 136 103 tgl 15 0 MOD_1 SET_MOD_1 MOD_1 -32 7 0 10 -262144 -1
-1 0 1;
#X obj 136 121 tgl 15 0 MOD_2 SET_MOD_2 MOD_2 -32 7 0 10 -262144 -1
-1 0 1;
#X obj 136 139 tgl 15 0 MOD_3 SET_MOD_3 MOD_3 -32 7 0 10 -262144 -1
-1 0 1;
#X obj 136 157 tgl 15 0 MOD_4 SET_MOD_4 MOD_4 -32 7 0 10 -262144 -1
-1 0 1;
#X obj 174 121 tgl 15 0 MOD_2_EN_R SET_MOD_2_EN_R R 4 8 0 10 -262144
-1 -1 1 1;
#X obj 155 121 tgl 15 0 MOD_2_EN_L SET_MOD_2_EN_L L 4 8 0 10 -262144
-1 -1 0 1;
#X obj 174 139 tgl 15 0 MOD_3_EN_R SET_MOD_3_EN_R R 4 8 0 10 -262144
-1 -1 0 1;
#X obj 155 139 tgl 15 0 MOD_3_EN_L SET_MOD_3_EN_L L 4 8 0 10 -262144
-1 -1 0 1;
#X obj 174 157 tgl 15 0 MOD_4_EN_R SET_MOD_4_EN_R R 4 8 0 10 -262144
-1 -1 0 1;
#X obj 155 157 tgl 15 0 MOD_4_EN_L SET_MOD_4_EN_L L 4 8 0 10 -262144
-1 -1 0 1;
#X obj 174 103 tgl 15 0 MOD_1_EN_R SET_MOD_1_EN_R R 4 8 0 10 -262144
-1 -1 0 1;
#X obj 155 103 tgl 15 0 MOD_1_EN_L SET_MOD_1_EN_L L 4 8 0 10 -262144
-1 -1 1 1;
#X obj 193 103 hradio 15 1 0 16 MOD_1_DIV SET_MOD_1_DIV MOD_1_DIV 242
8 0 10 -262144 -1 -1 1;
#X obj 193 121 hradio 15 1 0 16 MOD_2_DIV SET_MOD_2_DIV MOD_2_DIV 242
8 0 10 -262144 -1 -1 2;
#X obj 193 139 hradio 15 1 0 16 MOD_3_DIV SET_MOD_3_DIV MOD_3_DIV 242
8 0 10 -262144 -1 -1 15;
#X obj 193 157 hradio 15 1 0 16 MOD_4_DIV SET_MOD_4_DIV MOD_4_DIV 242
8 0 10 -262144 -1 -1 15;
#X obj 646 103 tgl 15 0 LOCAL_CLOCK_1_EN SET_LOCAL_CLOCK_1_EN EN 1
8 0 10 -262144 -1 -1 1 1;
#X obj 666 103 hsl 500 15 1000 5 0 0 LOCAL_CLOCK_1_RATE SET_LOCAL_CLOCK_1_RATE
LOCAL_CLOCK_1_RATE 2 8 0 10 -262144 -1 -1 40200 0;
#X obj 491 103 hradio 15 1 0 3 CLOCK_SEL_1 SET_CLOCK_SEL_1 CLOCK_SEL_1
47 8 0 10 -262144 -1 -1 2;
#X obj 491 139 hradio 15 1 0 3 CLOCK_SEL_3 SET_CLOCK_SEL_3 CLOCK_SEL_3
47 8 0 10 -262144 -1 -1 0;
#X obj 491 121 hradio 15 1 0 3 CLOCK_SEL_2 SET_CLOCK_SEL_2 CLOCK_SEL_2
47 8 0 10 -262144 -1 -1 2;
#X obj 491 157 hradio 15 1 0 3 CLOCK_SEL_4 SET_CLOCK_SEL_4 CLOCK_SEL_4
47 8 0 10 -262144 -1 -1 0;
#X obj 646 121 tgl 15 0 LOCAL_CLOCK_2_EN SET_LOCAL_CLOCK_2_EN EN 1
8 0 10 -262144 -1 -1 1 1;
#X obj 666 121 hsl 500 15 1000 5 0 0 LOCAL_CLOCK_2_RATE SET_LOCAL_CLOCK_2_RATE
LOCAL_CLOCK_2_RATE 2 8 0 10 -262144 -1 -1 40200 0;
#X obj 646 139 tgl 15 0 LOCAL_CLOCK_3_EN SET_LOCAL_CLOCK_3_EN EN 1
8 0 10 -262144 -1 -1 1 1;
#X obj 666 139 hsl 500 15 1000 5 0 0 LOCAL_CLOCK_3_RATE SET_LOCAL_CLOCK_3_RATE
LOCAL_CLOCK_3_RATE 2 8 0 10 -262144 -1 -1 43882 0;
#X obj 646 157 tgl 15 0 LOCAL_CLOCK_4_EN SET_LOCAL_CLOCK_4_EN EN 1
8 0 10 -262144 -1 -1 1 1;
#X obj 666 157 hsl 500 15 1000 5 0 0 LOCAL_CLOCK_4_RATE SET_LOCAL_CLOCK_4_RATE
LOCAL_CLOCK_4_RATE 2 8 0 10 -262144 -1 -1 43882 0;
#X obj 607 103 tgl 15 0 MASTER_LOCAL_CLOCK_EN SET_MASTER_LOCAL_CLOCK_EN
EN_ALL 1 8 0 10 -262144 -1 -1 1 1;
#X obj 607 121 bng 15 250 50 0 LOCAL_CLOCK_RESET empty R 4 8 0 10 -262144
-1 -1;
#X connect 1 0 0 0;
#X connect 2 0 19 0;
#X connect 3 0 19 0;
#X connect 4 0 2 0;
#X connect 4 0 19 1;
#X connect 5 0 2 0;
#X connect 5 0 19 2;
#X connect 6 0 2 0;
#X connect 6 0 19 3;
#X connect 8 0 7 0;
#X connect 9 0 8 0;
#X connect 9 1 8 1;
#X connect 10 0 9 0;
#X connect 11 0 9 7;
#X connect 11 0 10 0;
#X connect 12 0 9 6;
#X connect 12 0 10 0;
#X connect 13 0 9 0;
#X connect 14 0 9 1;
#X connect 14 0 10 0;
#X connect 15 0 9 2;
#X connect 15 0 10 0;
#X connect 16 0 9 3;
#X connect 16 0 10 0;
#X connect 17 0 9 4;
#X connect 17 0 10 0;
#X connect 18 0 9 5;
#X connect 18 0 10 0;
#X connect 19 0 1 0;
#X connect 19 1 1 1;
#X connect 20 0 23 0;
#X connect 21 0 20 0;
#X connect 22 0 20 1;
#X connect 25 0 26 0;
#X connect 25 0 29 0;
#X connect 26 0 25 1;
#X connect 27 0 25 1;
#X connect 28 0 27 0;
#X connect 28 0 24 0;
#X connect 29 0 28 0;
#X connect 30 0 29 1;
#X connect 31 0 32 0;
#X connect 31 0 35 0;
#X connect 32 0 31 1;
#X connect 33 0 31 1;
#X connect 34 0 33 0;
#X connect 34 0 36 0;
#X connect 35 0 34 0;
#X connect 37 0 35 1;
#X connect 38 0 39 0;
#X connect 38 0 42 0;
#X connect 39 0 38 1;
#X connect 40 0 38 1;
#X connect 41 0 40 0;
#X connect 41 0 50 0;
#X connect 42 0 41 0;
#X connect 43 0 44 0;
#X connect 43 0 47 0;
#X connect 44 0 43 1;
#X connect 45 0 43 1;
#X connect 46 0 45 0;
#X connect 46 0 51 0;
#X connect 47 0 46 0;
#X connect 48 0 42 1;
#X connect 49 0 47 1;
#X connect 52 0 85 0;
#X connect 53 0 77 0;
#X connect 54 0 43 0;
#X connect 55 0 43 0;
#X connect 56 0 86 0;
#X connect 56 0 92 0;
#X connect 57 0 78 0;
#X connect 57 0 96 0;
#X connect 58 0 70 0;
#X connect 58 0 109 0;
#X connect 59 0 62 0;
#X connect 59 0 110 0;
#X connect 60 0 69 0;
#X connect 61 0 55 0;
#X connect 62 0 63 0;
#X connect 62 1 64 0;
#X connect 62 1 67 0;
#X connect 62 2 65 0;
#X connect 62 2 66 0;
#X connect 63 0 54 1;
#X connect 63 0 55 1;
#X connect 64 0 55 1;
#X connect 65 0 54 1;
#X connect 66 0 55 1;
#X connect 67 0 54 1;
#X connect 68 0 38 0;
#X connect 69 0 38 0;
#X connect 70 0 71 0;
#X connect 70 1 72 0;
#X connect 70 1 75 0;
#X connect 70 2 73 0;
#X connect 70 2 74 0;
#X connect 71 0 68 1;
#X connect 71 0 69 1;
#X connect 72 0 69 1;
#X connect 73 0 68 1;
#X connect 74 0 69 1;
#X connect 75 0 68 1;
#X connect 76 0 31 0;
#X connect 77 0 31 0;
#X connect 78 0 79 0;
#X connect 78 1 80 0;
#X connect 78 1 83 0;
#X connect 78 2 81 0;
#X connect 78 2 82 0;
#X connect 79 0 76 1;
#X connect 79 0 77 1;
#X connect 80 0 77 1;
#X connect 81 0 76 1;
#X connect 82 0 77 1;
#X connect 83 0 76 1;
#X connect 84 0 25 0;
#X connect 85 0 25 0;
#X connect 86 0 87 0;
#X connect 86 1 88 0;
#X connect 86 1 91 0;
#X connect 86 2 89 0;
#X connect 86 2 90 0;
#X connect 87 0 84 1;
#X connect 87 0 85 1;
#X connect 88 0 85 1;
#X connect 89 0 84 1;
#X connect 90 0 85 1;
#X connect 91 0 84 1;
#X connect 92 0 24 0;
#X connect 93 0 99 0;
#X connect 94 0 105 0;
#X connect 95 0 108 0;
#X connect 96 0 36 0;
#X connect 97 0 93 0;
#X connect 98 0 93 1;
#X connect 100 0 84 0;
#X connect 101 0 68 0;
#X connect 102 0 54 0;
#X connect 103 0 94 0;
#X connect 104 0 94 1;
#X connect 106 0 95 0;
#X connect 107 0 95 1;
#X connect 109 0 50 0;
#X connect 110 0 51 0;
#X connect 111 0 76 0;
#X connect 116 0 115 0;
#X connect 116 0 114 0;
#X connect 116 0 113 0;
#X connect 116 0 112 0;
#X connect 118 0 117 0;
#X connect 119 0 117 0;
#X coords 0 -1 1 1 1071 75 2 100 100;
#X restore -17 381 pd MOD_CONTROLS;
#N canvas 0 22 1350 709 itch_controls 0;
#X obj 460 227 s SET_PITCH_CONTROL_FINE;
#X obj 460 54 r NOTE_NUMBER;
#X obj 453 250 spigot;
#X obj 502 74 r NOTE;
#X obj 486 128 sel 1;
#X obj 460 174 expr 4096/(pow(2 \, $f1/12));
#X obj 217 243 expr 12*((log(4096/$f1))/(log(2)));
#X obj 453 323 s to_serial;
#X obj 453 302 pack f f;
#X obj 453 269 expr ($i1 << 3) & 248 \; $i1 >> 5 \;;
#X obj 217 222 r PITCH_CONTROL_FINE;
#X msg 460 206 set \$1;
#X obj 460 151 f;
#X obj 217 284 s SET_NOTE_NUMBER;
#X obj 460 73 i;
#X msg 217 264 set \$1;
#X obj 270 264 s SET_NOTE_FINE;
#X obj 467 109 r SET_NOTE_FINE;
#X obj 351 152 s SET_NOTE_NUMBER;
#X msg 351 131 set \$1;
#X obj 324 50 key;
#X obj 324 71 sel 32;
#X obj 324 102 s SET_NOTE;
#X obj 509 205 s SET_uS;
#X obj 233 104 hsl 1025 15 4096 0 0 0 PITCH_CONTROL_FINE SET_PITCH_CONTROL_FINE
Fine_Pitch -2 7 0 10 -262144 -1 -1 87600 0;
#X obj 1262 104 hradio 15 1 0 10 PITCH_MULITPLIER SET_PITCH_MULITPLIER
DIV 152 8 0 10 -262144 -1 -1 0;
#X obj 103 104 tgl 15 0 NOTE SET_NOTE EN 1 8 0 10 -262144 -1 -1 1 1
;
#X floatatom 148 104 5 0 60 0 NOTE SET_NOTE_NUMBER NOTE_NUMBER;
#X floatatom 182 104 5 0 0 1 uS SET_uS uS;
#X obj 860 409 s to_serial;
#X obj 860 389 pack f f;
#X obj 860 354 expr ($i1 << 3) & 248 | 1 \; $i1 >> 5 \;;
#X obj 779 171 r PITCH_MULITPLIER;
#X obj 779 194 sel 0 1 2 3 4 5 6 7 8 9;
#X msg 779 327 1;
#X msg 792 308 2;
#X msg 806 289 3;
#X msg 819 270 4;
#X msg 873 251 8;
#X msg 887 232 16;
#X msg 900 213 32;
#X msg 833 251 5;
#X msg 846 232 6;
#X msg 860 213 7;
#X connect 1 0 14 0;
#X connect 2 0 9 0;
#X connect 3 0 2 1;
#X connect 3 0 4 0;
#X connect 4 0 12 0;
#X connect 4 1 9 0;
#X connect 5 0 2 0;
#X connect 5 0 11 0;
#X connect 5 0 23 0;
#X connect 6 0 15 0;
#X connect 6 0 16 0;
#X connect 8 0 7 0;
#X connect 9 0 8 0;
#X connect 9 1 8 1;
#X connect 10 0 6 0;
#X connect 11 0 0 0;
#X connect 12 0 5 0;
#X connect 14 0 12 0;
#X connect 14 0 19 0;
#X connect 15 0 13 0;
#X connect 17 0 12 0;
#X connect 19 0 18 0;
#X connect 20 0 21 0;
#X connect 21 0 22 0;
#X connect 30 0 29 0;
#X connect 31 0 30 0;
#X connect 31 1 30 1;
#X connect 32 0 33 0;
#X connect 33 0 34 0;
#X connect 33 1 35 0;
#X connect 33 2 36 0;
#X connect 33 3 37 0;
#X connect 33 4 41 0;
#X connect 33 5 42 0;
#X connect 33 6 43 0;
#X connect 33 7 38 0;
#X connect 33 8 39 0;
#X connect 33 9 40 0;
#X connect 34 0 31 0;
#X connect 35 0 31 0;
#X connect 36 0 31 0;
#X connect 37 0 31 0;
#X connect 38 0 31 0;
#X connect 39 0 31 0;
#X connect 40 0 31 0;
#X connect 41 0 31 0;
#X connect 42 0 31 0;
#X connect 43 0 31 0;
#X coords 0 -1 1 1 1335 22 2 100 100;
#X restore -17 533 pd itch_controls;
#N canvas 110 91 1130 527 TAP_CONTROLS 0;
#X obj 184 307 s to_serial;
#X obj 184 287 pack f f;
#X obj 184 254 expr 2 \; $i1 \;;
#X obj 257 307 s to_serial;
#X obj 257 287 pack f f;
#X obj 372 306 s to_serial;
#X obj 372 286 pack f f;
#X obj 257 254 expr (1 << 3) | 2 \; $i1 \;;
#X obj 372 253 expr (2 << 3) | 2 \; $i1 \;;
#X obj 492 305 s to_serial;
#X obj 492 285 pack f f;
#X obj 492 252 expr (3 << 3) | 2 \; $i1 \;;
#X obj 184 235 r TAP_1;
#X obj 257 235 r TAP_2;
#X obj 372 233 r TAP_3;
#X obj 492 233 r TAP_4;
#X obj 185 455 s to_serial;
#X obj 185 435 pack f f;
#X obj 185 389 expr 3 \; ($i1<<7)|($i2<<6)|($i3<<5)|($i4<<4)|($i5<<3)|($i6<<2)|($i7<<1)|$i8
\;;
#X obj 185 369 t b;
#X obj 491 328 r TAP_1_EN_R;
#X obj 542 347 r TAP_1_EN_L;
#X obj 185 328 r TAP_4_EN_R;
#X obj 236 347 r TAP_4_EN_L;
#X obj 287 328 r TAP_3_EN_R;
#X obj 338 347 r TAP_3_EN_L;
#X obj 389 328 r TAP_2_EN_R;
#X obj 440 347 r TAP_2_EN_L;
#X obj 188 104 tgl 15 0 TAP_1_EN_R SET_TAP_1_EN_R R 4 8 0 10 -262144
-1 -1 0 1;
#X floatatom 135 103 5 0 0 0 TAP_1 TAP_1 -;
#X floatatom 135 121 5 0 0 0 TAP_2 TAP_2 -;
#X floatatom 135 139 5 0 0 0 TAP_3 TAP_3 -;
#X floatatom 135 157 5 0 0 0 TAP_4 TAP_4 -;
#X obj 170 104 tgl 15 0 TAP_1_EN_L SET_TAP_1_EN_L L 4 8 0 10 -262144
-1 -1 1 1;
#X obj 188 122 tgl 15 0 TAP_2_EN_R SET_TAP_2_EN_R R 4 8 0 10 -262144
-1 -1 1 1;
#X obj 170 122 tgl 15 0 TAP_2_EN_L SET_TAP_2_EN_L L 4 8 0 10 -262144
-1 -1 0 1;
#X obj 188 140 tgl 15 0 TAP_3_EN_R SET_TAP_3_EN_R R 4 8 0 10 -262144
-1 -1 0 1;
#X obj 170 140 tgl 15 0 TAP_3_EN_L SET_TAP_3_EN_L L 4 8 0 10 -262144
-1 -1 0 1;
#X obj 188 158 tgl 15 0 TAP_4_EN_R SET_TAP_4_EN_R R 4 8 0 10 -262144
-1 -1 0 1;
#X obj 170 158 tgl 15 0 TAP_4_EN_L SET_TAP_4_EN_L L 4 8 0 10 -262144
-1 -1 0 1;
#X obj 207 101 cnv 15 480 75 empty empty empty 20 12 0 14 -1 -66577
0;
#X obj 447 101 cnv 15 240 75 empty empty empty 20 12 0 14 -191407 -66577
0;
#X obj 207 104 hradio 15 1 0 64 TAP_1 SET_TAP_1 TAP_1 965 7 0 10 -262144
-1 -1 3;
#X obj 207 122 hradio 15 1 0 64 TAP_2 SET_TAP_2 TAP_2 965 7 0 10 -262144
-1 -1 21;
#X obj 207 158 hradio 15 1 0 64 TAP_4 SET_TAP_4 TAP_4 965 7 0 10 -262144
-1 -1 12;
#X obj 207 140 hradio 15 1 0 64 TAP_3 SET_TAP_3 TAP_3 965 7 0 10 -262144
-1 -1 24;
#X connect 1 0 0 0;
#X connect 2 0 1 0;
#X connect 2 1 1 1;
#X connect 4 0 3 0;
#X connect 6 0 5 0;
#X connect 7 0 4 0;
#X connect 7 1 4 1;
#X connect 8 0 6 0;
#X connect 8 1 6 1;
#X connect 10 0 9 0;
#X connect 11 0 10 0;
#X connect 11 1 10 1;
#X connect 12 0 2 0;
#X connect 13 0 7 0;
#X connect 14 0 8 0;
#X connect 15 0 11 0;
#X connect 17 0 16 0;
#X connect 18 0 17 0;
#X connect 18 1 17 1;
#X connect 19 0 18 0;
#X connect 20 0 18 6;
#X connect 20 0 19 0;
#X connect 21 0 18 7;
#X connect 21 0 19 0;
#X connect 22 0 18 0;
#X connect 23 0 18 1;
#X connect 23 0 19 0;
#X connect 24 0 18 2;
#X connect 24 0 19 0;
#X connect 25 0 18 3;
#X connect 25 0 19 0;
#X connect 26 0 18 4;
#X connect 26 0 19 0;
#X connect 27 0 18 5;
#X connect 27 0 19 0;
#X coords 0 -1 1 1 1105 77 2 100 100;
#X restore -17 456 pd TAP_CONTROLS;
#X obj -17 57 value_sequencer;
#X obj -17 -98 binary_sequencer;
#X obj 633 -99 binary_sequencer;
#X obj 633 -22 binary_sequencer;
#X obj -17 -21 binary_sequencer;
#X obj 782 57 value_sequencer;
#X obj 516 57 value_sequencer;
#X obj 249 57 value_sequencer;
#X coords 0 0 1 1 85 60 0;
